<svg width="271" height="213" viewBox="0 0 271 213" fill="none" xmlns="http://www.w3.org/2000/svg">
<g clip-path="url(#clip0_32_2211)">
<path opacity="0.1" d="M171.93 28.4602C157.522 27.9596 143.797 23.2844 130.691 18.1847C117.585 13.0849 104.604 7.40862 90.5403 4.69888C81.4932 2.95616 71.1496 2.70982 63.8582 7.58158C56.8459 12.2699 54.5789 20.365 53.3607 27.8732C52.4424 33.5232 51.905 39.4721 54.4172 44.7605C56.1598 48.4294 59.2564 51.5191 61.3982 55.036C68.8487 67.277 63.5817 82.3693 55.5076 94.3194C51.7198 99.9118 47.3241 105.261 44.4049 111.217C41.4857 117.174 40.1292 124.024 42.6857 130.109C45.2214 136.137 51.2606 140.676 57.8164 143.865C71.1078 150.338 86.7733 152.191 102.037 153.242C135.841 155.564 169.825 154.552 203.72 153.551C216.263 153.179 228.86 152.801 241.2 150.852C248.053 149.769 255.128 148.053 260.102 143.907C266.418 138.645 267.983 129.732 263.755 123.133C256.656 112.064 237.028 109.315 232.069 97.4353C229.338 90.8968 232.142 83.6114 236.11 77.5473C244.625 64.5385 258.895 53.1256 259.646 38.2561C260.168 28.0356 253.302 17.8152 242.689 12.9827C231.571 7.91702 216.156 8.55383 207.951 16.9399C199.496 25.5827 184.653 28.9057 171.93 28.4602Z" fill="url(#paint0_linear_32_2211)"/>
<path d="M131.258 196.482C131.258 196.482 119.258 175.121 101.174 168.965C93.5857 166.382 86.9621 161.523 82.4333 154.882C80.2903 151.729 78.4391 148.385 76.9028 144.892" stroke="#535461" stroke-width="2" stroke-miterlimit="10"/>
<path d="M65.5336 140.94C67.5919 142.948 77.1868 145.026 77.1868 145.026C77.1868 145.026 74.8389 135.455 72.7728 133.445C71.7767 132.517 70.4584 132.017 69.1002 132.053C67.7419 132.089 66.4516 132.658 65.5054 133.637C64.5592 134.617 64.0324 135.93 64.0376 137.294C64.0429 138.659 64.5799 139.968 65.5336 140.94Z" fill="#FF8000"/>
<path d="M70.9599 158.26C73.7773 158.821 82.9601 155.328 82.9601 155.328C82.9601 155.328 75.8043 148.577 72.9895 148.016C72.3143 147.868 71.6165 147.857 70.9369 147.983C70.2573 148.109 69.6095 148.37 69.0314 148.75C68.4533 149.13 67.9565 149.623 67.57 150.198C67.1836 150.774 66.9152 151.421 66.7807 152.102C66.6461 152.783 66.648 153.484 66.7863 154.164C66.9246 154.844 67.1965 155.49 67.5861 156.063C67.9758 156.637 68.4752 157.126 69.0554 157.504C69.6356 157.881 70.2848 158.138 70.9651 158.26H70.9599Z" fill="#FF8000"/>
<path d="M90.7248 176.995C93.4378 176.052 99.5945 168.381 99.5945 168.381C99.5945 168.381 90.0282 166.182 87.3152 167.126C86.0526 167.608 85.0266 168.565 84.4544 169.795C83.8821 171.024 83.8086 172.429 84.2494 173.711C84.6902 174.994 85.6107 176.054 86.8159 176.667C88.0211 177.28 89.4165 177.398 90.7065 176.995H90.7248Z" fill="#FF8000"/>
<path d="M108.854 187.8C111.687 187.331 119.054 180.819 119.054 180.819C119.054 180.819 109.994 177.027 107.161 177.496C105.823 177.745 104.635 178.512 103.854 179.631C103.072 180.75 102.758 182.133 102.98 183.481C103.202 184.83 103.941 186.038 105.039 186.846C106.137 187.653 107.507 187.996 108.854 187.8Z" fill="#FF8000"/>
<path d="M90.956 147.848C90.956 150.731 85.762 159.099 85.762 159.099C85.762 159.099 80.5602 150.736 80.5576 147.854C80.5576 146.468 81.1054 145.14 82.0804 144.16C83.0555 143.181 84.3779 142.631 85.7568 142.631C87.1357 142.631 88.4582 143.181 89.4332 144.16C90.4082 145.14 90.956 146.468 90.956 147.854V147.848Z" fill="#FF8000"/>
<path d="M112 160.747C111.142 163.499 103.694 169.92 103.694 169.92C103.694 169.92 101.221 160.378 102.079 157.626C102.26 156.945 102.576 156.308 103.008 155.753C103.441 155.197 103.98 154.736 104.595 154.396C105.21 154.056 105.887 153.845 106.585 153.774C107.283 153.704 107.988 153.777 108.658 153.987C109.327 154.198 109.947 154.543 110.481 155.001C111.014 155.459 111.45 156.021 111.761 156.652C112.073 157.284 112.254 157.972 112.294 158.676C112.333 159.38 112.231 160.084 111.992 160.747H112Z" fill="#FF8000"/>
<path d="M130.742 176.104C130.361 178.961 124.1 186.555 124.1 186.555C124.1 186.555 120.057 177.572 120.448 174.712C120.539 174.033 120.762 173.378 121.105 172.785C121.448 172.192 121.904 171.673 122.446 171.257C122.989 170.842 123.608 170.537 124.268 170.361C124.927 170.186 125.615 170.142 126.292 170.234C126.968 170.325 127.62 170.55 128.21 170.894C128.8 171.238 129.317 171.696 129.731 172.241C130.145 172.786 130.448 173.408 130.623 174.071C130.798 174.734 130.841 175.425 130.75 176.104H130.742Z" fill="#FF8000"/>
<path d="M65.5336 140.94C67.5919 142.948 77.1868 145.026 77.1868 145.026C77.1868 145.026 74.8389 135.455 72.7728 133.445C71.7767 132.517 70.4584 132.017 69.1002 132.053C67.7419 132.089 66.4516 132.658 65.5054 133.637C64.5592 134.617 64.0324 135.93 64.0376 137.294C64.0429 138.659 64.5799 139.968 65.5336 140.94Z" fill="#9347B2"/>
<path d="M70.9599 158.26C73.7773 158.821 82.9601 155.328 82.9601 155.328C82.9601 155.328 75.8043 148.577 72.9895 148.016C72.3143 147.868 71.6165 147.857 70.9369 147.983C70.2573 148.109 69.6095 148.37 69.0314 148.75C68.4533 149.13 67.9565 149.623 67.57 150.198C67.1836 150.774 66.9152 151.421 66.7807 152.102C66.6461 152.783 66.648 153.484 66.7863 154.164C66.9246 154.844 67.1965 155.49 67.5861 156.063C67.9758 156.637 68.4752 157.126 69.0554 157.504C69.6356 157.881 70.2848 158.138 70.9651 158.26H70.9599Z" fill="#9347B2"/>
<path d="M90.7248 176.995C93.4378 176.052 99.5945 168.381 99.5945 168.381C99.5945 168.381 90.0282 166.182 87.3152 167.126C86.0526 167.608 85.0266 168.565 84.4544 169.795C83.8821 171.024 83.8086 172.429 84.2494 173.711C84.6902 174.994 85.6107 176.054 86.8159 176.667C88.0211 177.28 89.4165 177.398 90.7065 176.995H90.7248Z" fill="#9347B2"/>
<path d="M108.854 187.8C111.687 187.331 119.054 180.819 119.054 180.819C119.054 180.819 109.994 177.027 107.161 177.496C105.823 177.745 104.635 178.512 103.854 179.631C103.072 180.75 102.758 182.133 102.98 183.481C103.202 184.83 103.941 186.038 105.039 186.846C106.137 187.653 107.507 187.996 108.854 187.8Z" fill="#9347B2"/>
<path d="M90.956 147.848C90.956 150.731 85.762 159.099 85.762 159.099C85.762 159.099 80.5602 150.736 80.5576 147.854C80.5576 146.468 81.1054 145.14 82.0804 144.16C83.0555 143.181 84.3779 142.631 85.7568 142.631C87.1357 142.631 88.4582 143.181 89.4332 144.16C90.4082 145.14 90.956 146.468 90.956 147.854V147.848Z" fill="#9347B2"/>
<path d="M112 160.747C111.142 163.499 103.694 169.92 103.694 169.92C103.694 169.92 101.221 160.378 102.079 157.626C102.26 156.945 102.576 156.308 103.008 155.753C103.441 155.197 103.98 154.736 104.595 154.396C105.21 154.056 105.887 153.845 106.585 153.774C107.283 153.704 107.988 153.777 108.658 153.987C109.327 154.198 109.947 154.543 110.481 155.001C111.014 155.459 111.45 156.021 111.761 156.652C112.073 157.284 112.254 157.972 112.294 158.676C112.333 159.38 112.231 160.084 111.992 160.747H112Z" fill="#9347B2"/>
<path opacity="0.25" d="M130.742 176.104C130.361 178.961 124.1 186.555 124.1 186.555C124.1 186.555 120.057 177.572 120.448 174.712C120.539 174.033 120.762 173.378 121.105 172.785C121.448 172.192 121.904 171.673 122.446 171.257C122.989 170.842 123.608 170.537 124.268 170.361C124.927 170.186 125.615 170.142 126.292 170.234C126.968 170.325 127.62 170.55 128.21 170.894C128.8 171.238 129.317 171.696 129.731 172.241C130.145 172.786 130.448 173.408 130.623 174.071C130.798 174.734 130.841 175.425 130.75 176.104H130.742Z" fill="black"/>
<path d="M130.567 196.058C130.567 196.058 128.219 171.641 114.166 158.653C108.27 153.202 104.175 146.074 102.714 138.149C102.026 134.393 101.683 130.582 101.689 126.763" stroke="#535461" stroke-width="2" stroke-miterlimit="10"/>
<path d="M92.8856 118.526C93.9578 121.202 101.891 127.006 101.891 127.006C101.891 127.006 103.6 117.297 102.527 114.621C102.272 113.985 101.895 113.405 101.416 112.915C100.938 112.425 100.368 112.034 99.7397 111.765C99.111 111.496 98.4359 111.354 97.7526 111.347C97.0694 111.341 96.3916 111.469 95.7578 111.726C95.124 111.982 94.5467 112.361 94.0589 112.842C93.571 113.322 93.1821 113.895 92.9145 114.526C92.6468 115.158 92.5055 115.836 92.4988 116.522C92.492 117.208 92.6199 117.889 92.8752 118.526H92.8856Z" fill="#602678"/>
<path d="M90.86 136.569C93.2079 138.228 103.009 138.771 103.009 138.771C103.009 138.771 99.1923 129.687 96.8444 128.026C96.2869 127.617 95.6539 127.324 94.9823 127.163C94.3108 127.003 93.6142 126.979 92.9331 127.091C92.252 127.204 91.6001 127.452 91.0155 127.821C90.4308 128.189 89.925 128.671 89.5277 129.238C89.1304 129.805 88.8495 130.446 88.7013 131.123C88.5531 131.801 88.5407 132.501 88.6647 133.183C88.7887 133.865 89.0467 134.516 89.4236 135.097C89.8005 135.678 90.2888 136.177 90.86 136.567V136.569Z" fill="#602678"/>
<path d="M101.368 161.748C104.237 161.989 112.961 157.487 112.961 157.487C112.961 157.487 105.101 151.575 102.239 151.342C101.55 151.268 100.854 151.333 100.191 151.534C99.5278 151.734 98.9112 152.065 98.3773 152.508C97.8435 152.951 97.4031 153.497 97.082 154.113C96.7609 154.73 96.5656 155.404 96.5076 156.097C96.4495 156.791 96.5299 157.488 96.744 158.15C96.9581 158.812 97.3016 159.423 97.7543 159.95C98.207 160.476 98.7598 160.906 99.3803 161.215C100.001 161.524 100.676 161.705 101.368 161.748Z" fill="#602678"/>
<path d="M113.586 179.002C116.367 179.726 125.73 176.77 125.73 176.77C125.73 176.77 118.976 169.615 116.197 168.892C114.871 168.569 113.472 168.783 112.301 169.488C111.131 170.192 110.283 171.331 109.94 172.658C109.598 173.985 109.789 175.393 110.471 176.58C111.154 177.767 112.273 178.637 113.589 179.002H113.586Z" fill="#602678"/>
<path d="M113.341 135.188C112.178 137.827 104.054 143.359 104.054 143.359C104.054 143.359 102.671 133.597 103.832 130.961C104.395 129.701 105.431 128.716 106.714 128.222C107.997 127.727 109.423 127.764 110.68 128.322C111.937 128.881 112.922 129.917 113.421 131.203C113.92 132.49 113.891 133.923 113.341 135.188Z" fill="#602678"/>
<path d="M127.376 155.548C125.482 157.715 116.083 160.553 116.083 160.553C116.083 160.553 117.672 150.823 119.566 148.658C120.016 148.143 120.563 147.722 121.175 147.419C121.788 147.116 122.453 146.937 123.134 146.893C123.815 146.849 124.498 146.939 125.145 147.16C125.791 147.381 126.387 147.727 126.9 148.18C127.413 148.632 127.832 149.182 128.134 149.797C128.435 150.412 128.613 151.081 128.657 151.765C128.701 152.449 128.611 153.135 128.391 153.784C128.171 154.433 127.827 155.033 127.376 155.548Z" fill="#602678"/>
<path d="M138.317 177.218C136.804 179.676 128.028 184.071 128.028 184.071C128.028 184.071 127.955 174.212 129.458 171.754C130.18 170.572 131.339 169.727 132.681 169.404C134.023 169.081 135.438 169.307 136.614 170.032C137.79 170.757 138.631 171.921 138.953 173.27C139.274 174.618 139.049 176.039 138.328 177.22L138.317 177.218Z" fill="#602678"/>
<path opacity="0.1" d="M155.966 213C194.695 213 226.091 210.732 226.091 207.934C226.091 205.137 194.695 202.869 155.966 202.869C117.236 202.869 85.8403 205.137 85.8403 207.934C85.8403 210.732 117.236 213 155.966 213Z" fill="url(#paint1_linear_32_2211)"/>
<path d="M255.162 66.5248C255.365 65.9666 253.839 62.869 253.839 62.717C253.839 62.565 252.261 60.838 252.261 59.8736C252.261 58.9092 250.174 56.8285 250.174 56.8285C250.174 56.8285 247.375 55.6597 247.069 53.1203C246.764 50.5809 243.717 50.5311 243.709 50.5311C243.709 50.5311 243.722 50.2978 243.728 49.9493C243.728 49.1631 243.704 47.748 243.352 46.9775C242.83 45.8611 241.62 45.5047 241.62 45.5047C241.62 45.5047 241.315 43.5235 240.704 42.9129C240.363 42.5548 240.118 42.115 239.993 41.6353C239.869 41.1555 239.868 40.6517 239.992 40.1717C240.297 39.2099 239.585 36.7649 238.109 36.4163C236.632 36.0678 234.952 35.5017 234.952 35.5017C234.952 35.5017 234.788 35.5332 234.545 35.5672L234.341 35.5017C233.988 35.5678 233.631 35.6125 233.272 35.6354C232.96 35.6441 232.654 35.5431 232.408 35.3497C231.887 34.7915 227.778 33.7249 227.014 33.7249C226.249 33.7249 224.06 32.7081 224.06 32.7081C224.06 32.7081 222.534 31.542 221.874 31.0336C221.259 30.5645 220.124 28.6593 219.96 28.3788L219.939 28.3422H219.926C219.77 27.9814 219.636 27.6112 219.527 27.2336C219.503 27.155 219.485 27.0764 219.464 26.9978C220.208 26.2125 220.845 25.3312 221.358 24.3771C221.41 24.2776 221.457 24.1753 221.507 24.0758C221.619 24.0754 221.731 24.0578 221.838 24.0234C221.883 24.0082 221.927 23.9907 221.971 23.9709C222.487 23.698 222.875 23.2319 223.051 22.6737C223.087 22.5637 223.119 22.451 223.147 22.3383L223.171 22.2256C223.189 22.1496 223.205 22.071 223.22 21.9924C223.236 21.9137 223.234 21.9059 223.241 21.8613C223.249 21.8168 223.265 21.7093 223.275 21.6333C223.286 21.5573 223.275 21.5469 223.294 21.5049C223.307 21.408 223.317 21.3136 223.33 21.2167C223.372 20.8576 223.414 20.4986 223.489 20.1474C223.488 20.1423 223.488 20.1369 223.489 20.1317C223.792 18.7533 224.619 17.5897 225.203 16.3161C225.287 16.1326 225.365 15.9466 225.438 15.7605C225.511 15.5744 225.579 15.3517 225.639 15.142C225.657 15.0791 225.67 15.0162 225.688 14.9533C225.727 14.7996 225.761 14.645 225.79 14.4895C225.803 14.424 225.816 14.3585 225.827 14.2903C225.863 14.0807 225.892 13.8684 225.907 13.6561C226.012 12.4426 225.834 11.2213 225.386 10.0894C225.005 9.13553 224.436 8.27596 224.05 7.32467C223.466 5.87808 223.312 4.2428 222.597 2.86959C221.4 0.560808 218.577 -0.594892 216.258 0.272538C215.152 0.686599 214.192 1.49113 213.067 1.84492C211.565 2.32712 209.955 1.96547 208.398 1.74796C206.84 1.53044 205.121 1.5121 203.869 2.53415C202.426 3.71081 202.043 5.92263 200.681 7.21198C200.112 7.75445 199.405 8.10038 198.805 8.60092C198.384 8.94095 198.059 9.38658 197.864 9.89289C197.864 9.92958 197.84 9.96627 197.83 10.003C197.819 10.0396 197.806 10.0894 197.796 10.134C197.785 10.1785 197.778 10.2362 197.77 10.286C197.762 10.3358 197.77 10.3567 197.77 10.3908C197.762 10.478 197.762 10.5657 197.77 10.6529C197.778 10.741 197.792 10.8285 197.811 10.9149C197.816 10.938 197.822 10.9608 197.83 10.9831C197.847 11.0558 197.868 11.1276 197.892 11.198C197.892 11.198 197.892 11.2242 197.892 11.2373C197.921 11.3159 197.952 11.3919 197.984 11.4705L198.033 11.5832C198.033 11.6146 198.062 11.6461 198.075 11.6802C198.273 12.0554 198.432 12.4507 198.547 12.8594C198.612 13.1201 198.596 13.3946 198.5 13.6456C198.364 13.929 198.172 14.1821 197.937 14.3899C196.923 15.4478 196.141 16.7063 195.638 18.085C195.581 18.2422 195.526 18.3995 195.474 18.5593C195.474 18.5593 195.474 18.5593 195.474 18.5724L195.542 18.5908C195.688 18.6331 195.837 18.6655 195.988 18.6877C196.074 18.6877 196.16 18.7087 196.249 18.7139C196.599 18.7342 196.949 18.7077 197.292 18.6353C197.381 18.617 197.467 18.596 197.553 18.5724C197.907 18.4765 198.252 18.3493 198.584 18.1924C198.584 18.2973 198.584 18.3995 198.584 18.5043C198.584 18.562 198.584 18.6196 198.584 18.6773C198.586 20.9233 199.213 23.124 200.393 25.0319C201.573 26.9398 203.259 28.4792 205.262 29.4769C205.278 29.5896 205.291 29.697 205.306 29.8071C205.322 29.9172 205.33 29.9932 205.34 30.0849L205.202 29.9512C205.202 29.9512 204.286 29.4952 203.42 30.816C202.554 32.1368 200.926 32.7448 200.926 32.7448C200.926 32.7448 191.663 34.2176 191.308 35.4362L186.98 35.6983C186.98 35.6983 185.454 35.9001 185.303 39.1051C185.151 42.3101 184.335 42.6089 184.335 42.6089C184.335 42.6089 182.553 45.7537 182.707 47.3811C182.861 49.0085 181.332 49.8183 181.332 49.8183L181.129 52.701C181.129 52.701 179.449 52.4389 178.989 54.428C178.53 56.417 177.719 57.3107 177.719 57.3107C177.719 57.3107 174.917 59.6483 174.766 61.6268L173.036 62.6934C173.036 62.6934 169.014 61.7788 168.098 60.154L167.816 59.892C167.807 59.8798 167.799 59.8667 167.793 59.8527C167.792 59.8588 167.792 59.8649 167.793 59.871C167.193 59.3023 165.915 58.1073 166.11 58.3825C166.228 58.6381 166.257 58.9259 166.194 59.2001L165.894 58.8673L165.093 57.9737C165.093 57.9737 159.111 51.0709 155.294 50.5861L155.005 50.0122C154.926 49.857 154.789 49.7395 154.625 49.6855C154.46 49.6315 154.28 49.6453 154.126 49.7239L148.368 52.6066C148.291 52.6448 148.223 52.6978 148.167 52.7627C148.11 52.8275 148.068 52.9029 148.04 52.9845C148.013 53.0661 148.002 53.1523 148.008 53.2381C148.015 53.3239 148.038 53.4077 148.076 53.4845L148.72 54.7555H148.707C148.7 54.7591 148.693 54.7642 148.688 54.7704C148.683 54.7767 148.679 54.7839 148.676 54.7918C148.674 54.7997 148.673 54.8079 148.674 54.8161C148.675 54.8243 148.677 54.8322 148.681 54.8394L148.908 55.2875C148.916 55.3024 148.928 55.3138 148.944 55.3192C148.96 55.3246 148.977 55.3236 148.992 55.3164L149.229 55.7854C149.213 55.7939 149.2 55.8085 149.194 55.8262C149.188 55.8438 149.19 55.8631 149.198 55.8798L149.628 56.7289C149.632 56.7373 149.638 56.7449 149.645 56.7511C149.652 56.7574 149.66 56.7621 149.668 56.765C149.677 56.768 149.687 56.7691 149.696 56.7683C149.705 56.7675 149.714 56.7648 149.722 56.7603L149.897 57.1036C149.882 57.112 149.87 57.1259 149.865 57.1424C149.86 57.159 149.861 57.177 149.868 57.1927L150.307 58.0575C150.31 58.0656 150.315 58.0728 150.322 58.0788C150.328 58.0847 150.336 58.0891 150.344 58.0918C150.353 58.0946 150.362 58.0955 150.37 58.0945C150.379 58.0936 150.388 58.0908 150.395 58.0864L154.569 66.3702C154.648 66.5253 154.784 66.6429 154.949 66.6974C155.114 66.7519 155.293 66.7388 155.448 66.6611L159.867 64.4414L160.024 64.5567L161.328 66.2418C161.107 66.7659 160.921 67.29 160.765 67.7591C160.761 67.7742 160.757 67.7891 160.752 67.8037C160.718 67.9033 160.687 68.0028 160.658 68.0972L160.627 68.1968C160.595 68.2937 160.567 68.3881 160.541 68.4772L160.494 68.6449C160.494 68.6763 160.473 68.7104 160.465 68.7419C160.321 69.2503 160.23 69.6434 160.181 69.8609L159.844 69.7561L160.173 69.8976C160.173 69.9159 160.173 69.9369 160.173 69.95C160.157 70.0181 160.152 70.0574 160.152 70.0574C160.251 70.1046 160.355 70.1491 160.465 70.1937C162.247 70.9799 171.145 74.8951 171.602 75.49C172.11 76.1504 175.47 78.0792 178.525 76.4544C181.58 74.8296 182.24 72.3426 182.24 72.3426C182.24 72.3426 185.193 68.2282 185.295 67.6255C185.397 67.0227 187.687 66.3152 187.687 66.3152C187.687 66.3152 187.89 73.1288 186.719 75.6079C185.548 78.0871 183.359 89.1121 183.359 89.1121C183.502 89.0837 183.647 89.0749 183.792 89.0859L183.664 89.7227C183.842 89.6889 184.024 89.6889 184.202 89.7227C184.04 90.9727 183.106 96.7984 183.106 96.7984C183.106 96.7984 182.801 99.44 182.29 100.352C181.778 101.264 181.731 106.039 181.731 106.039L180.917 109.493C180.917 109.493 181.024 109.731 181.225 110.088V110.101C181.225 110.101 182.099 112.05 183.573 113.143C183.505 113.683 183.368 114.212 183.163 114.716C182.642 115.73 182.757 117.153 182.757 117.153C182.757 117.153 181.893 121.06 181.992 122.179C182.091 123.298 181.413 126.037 181.413 126.037L180.497 134.871C180.497 134.871 179.887 142.536 180.192 144.62C180.497 146.703 179.989 149.544 179.989 149.544C179.989 149.544 180.599 155.587 180.445 156.245C180.291 156.903 179.529 159.749 179.989 161.324C180.448 162.899 180.192 167.212 180.192 167.212C180.192 167.212 180.497 172.902 180.852 174.728C181.207 176.555 180.75 178.892 180.75 178.892C180.75 178.892 180.393 182.802 180.229 182.802C180.064 182.802 178.752 185.491 181.45 188.133C184.147 190.774 182.483 190.36 182.483 190.36C182.483 190.36 180.343 189.294 180.599 191.477C180.839 193.555 181.176 193.012 181.207 192.955L180.685 194.624C180.685 194.624 180.818 194.64 181.043 194.674L180.748 195.03C180.439 195.418 180.095 195.776 179.72 196.1C179.109 196.555 179.057 197.57 179.057 197.57C179.057 197.57 175.293 201.684 171.782 203.765C169.935 204.86 168.338 205.788 167.644 206.553C167.018 207.242 167.122 207.801 168.427 208.233C171.176 209.148 176.01 209.604 179.469 208.437C181.534 207.746 183.39 206.541 184.864 204.934C184.864 204.934 187.056 203.815 189.192 204.221C191.329 204.627 195.604 201.836 195.604 201.836L195.526 201.115L195.299 199.042C195.299 199.042 194.778 198.432 194.942 197.774C195.012 197.475 194.905 196.705 194.767 195.94C194.731 195.738 194.691 195.539 194.652 195.35L195.044 195.277C195.044 195.277 194.538 192.687 195.453 192.179C196.369 191.671 196.113 185.019 196.113 185.019C196.113 185.019 194.942 183.497 194.331 183.243C193.721 182.988 194.279 179.836 194.384 179.435C194.488 179.034 195.299 171.159 195.299 171.159C195.299 171.159 194.994 168.672 195.401 167.605C195.808 166.539 194.892 162.427 194.892 162.427C194.892 162.427 194.587 161.919 195.153 161.308C195.719 160.697 195.5 155.283 195.5 155.283C195.5 155.283 195.451 152.542 195.451 151.829C195.451 151.116 196.061 148.53 196.619 147.668C197.178 146.805 196.825 144.111 196.825 144.111L196.857 143.91C196.857 143.834 196.883 143.734 196.901 143.621L196.948 143.359C197.192 141.872 197.523 140.4 197.939 138.951C198.602 136.818 199.366 133.063 199.366 133.063L204.109 120.651L204.164 120.505C204.164 120.505 206.35 124.567 206.35 128.327C206.35 128.327 206.913 132.845 206.759 134.064C206.605 135.282 207.219 141.019 207.219 141.019C207.219 141.019 207.879 149.243 207.879 149.599C207.879 149.955 208.692 156.303 209.204 157.27C209.715 158.237 208.682 161.177 208.387 161.481C208.092 161.785 208.489 169.251 208.489 169.251C208.489 169.251 207.725 175.14 207.573 176.358C207.422 177.577 206.809 182.249 207.312 184.079C207.816 185.908 207.618 186.159 207.618 186.159C207.618 186.159 209.444 188.038 208.382 188.19C207.32 188.342 205.687 189.713 206.345 191.896C207.002 194.079 208.588 197.331 208.588 197.331C208.588 197.331 208.904 197.26 209.431 197.153V197.756L209.493 200.783C209.493 200.783 209.848 203.665 209.645 204.339C209.496 204.818 209.292 207.096 209.193 208.27C209.157 208.705 209.136 208.996 209.136 208.996C209.136 208.996 209.136 211.684 214.784 210.875C220.432 210.065 221.452 207.827 221.452 207.827L221.494 207.546C221.577 207.022 221.754 205.945 221.908 205.34C222.114 204.525 220.283 200.869 220.283 200.869C220.283 200.869 219.975 198.385 219.467 197.824C219.256 197.502 219.116 197.138 219.057 196.757C219.01 196.553 218.971 196.341 218.937 196.131C219.07 196.149 219.198 196.173 219.313 196.199C219.313 196.199 219.007 194.422 220.181 193.861C221.355 193.301 221.045 192.137 220.894 191.629C220.742 191.12 221.35 188.28 221.35 188.28C221.268 187.997 221.263 187.697 221.334 187.412C221.406 187.126 221.552 186.865 221.757 186.655C222.472 185.942 223.03 180.965 223.03 180.965L223.153 161.795C223.153 161.795 223.51 158.389 223.103 157.021C222.696 155.653 222.287 153.011 222.842 152.303C223.398 151.596 222.894 148.294 222.894 148.294C222.894 148.294 222.894 141.336 223.656 139.612C224.418 137.887 224.178 126.967 224.178 126.967L224.379 119.81C224.379 119.81 226.041 118.238 225.647 109.988C227.421 109.878 229.421 109.812 229.724 110.059C230.282 110.515 233.898 112.852 236.035 111.369C236.494 111.165 238.578 109.388 238.578 109.388L237.681 94.1646C238.242 95.0137 238.581 95.5772 238.581 95.5772C238.581 93.444 244.581 86.5386 244.581 86.5386C244.581 86.5386 250.179 79.2794 251.4 78.4146C252.621 77.5498 255.013 72.9821 255.013 72.9821C255.368 72.1107 255.776 71.2625 256.237 70.4427C256.79 69.5228 254.958 67.0856 255.162 66.5248ZM242.029 71.8578C240.503 72.0098 237.297 75.5136 237.245 76.2736C237.219 76.6745 236.882 77.2144 236.569 77.6389C236.546 77.3323 236.52 77.0204 236.494 76.7034C236.134 72.2168 235.748 66.7449 235.925 66.2208C236.23 65.3062 236.126 61.1944 236.126 61.1944L236.183 61.1158C237.211 64.3025 240.396 68.0605 240.396 68.0605C240.396 68.0605 240.957 69.6853 241.617 69.7351C242.277 69.7849 242.029 71.8578 242.029 71.8578Z" fill="url(#paint2_linear_32_2211)"/>
<path d="M160.427 70.6968C160.427 70.6968 162.282 60.9219 168.253 60.8721L172.615 69.8923L169.706 71.9075C169.706 71.9075 163.385 72.1093 160.427 70.6968Z" fill="#65617D"/>
<path opacity="0.1" d="M172.615 69.8896L169.706 71.9075C169.706 71.9075 165.271 72.049 162.078 71.2628C161.51 71.1296 160.957 70.94 160.427 70.6968C160.427 70.6968 160.427 70.6444 160.461 70.5395C160.46 70.5273 160.46 70.5151 160.461 70.5029C160.735 69.276 161.113 68.0749 161.59 66.9126C161.773 66.4749 161.982 66.0216 162.206 65.5708C163.08 63.8805 164.309 62.2243 165.989 61.404C166.61 61.097 167.287 60.9187 167.979 60.8799H168.156H168.245L168.339 61.079L169.816 64.1268L172.615 69.8896Z" fill="black"/>
<path d="M222.174 110.507C222.174 110.507 228.435 109.902 228.996 110.355C229.557 110.808 233.11 113.128 235.215 111.665C237.32 110.203 235.917 105.114 235.917 104.912C235.917 104.71 235.719 97.506 235.719 97.506L231.954 92.4167L227.24 83.5066L217.609 82.55L217.87 96.7015L217.82 103.958L222.174 110.507Z" fill="#65617D"/>
<path opacity="0.1" d="M222.174 110.507C222.174 110.507 228.435 109.902 228.996 110.355C229.557 110.808 233.11 113.128 235.215 111.665C237.32 110.203 235.917 105.114 235.917 104.912C235.917 104.71 235.719 97.506 235.719 97.506L231.954 92.4167L227.24 83.5066L217.609 82.55L217.87 96.7015L217.82 103.958L222.174 110.507Z" fill="black"/>
<path d="M166.995 60.6203C166.995 60.6203 166.497 66.7684 162.683 66.8679C162.683 66.8679 161.603 66.2128 160.15 65.1226C156.8 62.6042 151.484 57.7639 152.953 53.2616C155.06 46.8122 165.292 58.7047 165.292 58.7047L166.074 59.5904L166.995 60.6203Z" fill="#F89D8F"/>
<path opacity="0.1" d="M166.995 60.6205C166.995 60.6205 166.497 66.7685 162.683 66.8681C162.683 66.8681 161.603 66.2129 160.15 65.1227L159.824 64.7034C160.47 65.0424 161.182 65.2348 161.911 65.2669C162.868 65.2878 163.946 64.9314 164.637 63.5425C165.033 62.7511 165.382 61.9364 165.68 61.1027C165.863 60.6142 165.993 60.1072 166.066 59.5906L166.995 60.6205Z" fill="black"/>
<path d="M165.342 71.7555L164.483 70.647L161.588 66.9126L160.116 65.0048C160.762 65.3454 161.475 65.5387 162.203 65.5708C163.161 65.5918 164.238 65.2354 164.932 63.8438C165.329 63.0526 165.677 62.2378 165.975 61.404C166.453 60.0439 166.442 59.3442 166.275 59.1083C166.108 58.8725 167.34 60.0229 167.932 60.5864L167.953 60.6073C168.122 60.7646 168.232 60.8694 168.232 60.8694L168.334 61.0738L169.787 63.9932L169.802 64.1164C169.935 65.0441 170.426 70.9222 165.342 71.7555Z" fill="#E7EFFD"/>
<path d="M195.389 201.461C195.389 201.461 191.176 204.234 189.071 203.82C186.966 203.406 184.806 204.528 184.806 204.528C183.354 206.121 181.524 207.317 179.486 208.005C176.077 209.164 171.313 208.71 168.605 207.801C167.322 207.374 167.22 206.818 167.836 206.137C168.522 205.374 170.095 204.454 171.916 203.367C175.375 201.302 179.087 197.219 179.087 197.219C179.087 197.219 179.137 196.212 179.739 195.759C180.109 195.442 180.448 195.091 180.752 194.711C181.289 194.071 181.795 193.4 181.795 193.4L194.187 193.804C194.187 193.804 194.398 194.703 194.562 195.62C194.701 196.372 194.807 197.137 194.737 197.434C194.586 198.086 195.089 198.691 195.089 198.691L195.311 200.749L195.389 201.461Z" fill="#65617D"/>
<path d="M221.327 204.936C221.178 205.539 220.998 206.621 220.917 207.13C220.889 207.303 220.876 207.408 220.876 207.408C220.876 207.408 219.871 209.625 214.304 210.432C208.737 211.239 208.737 208.566 208.737 208.566C208.737 208.566 208.758 208.278 208.795 207.845C208.891 206.666 209.092 204.41 209.238 203.93C209.439 203.275 209.089 200.403 209.089 200.403L209.029 197.399L208.988 195.303L218.217 194.344C218.276 195.037 218.375 195.727 218.515 196.409C218.573 196.783 218.711 197.141 218.919 197.457C219.42 198.015 219.723 200.481 219.723 200.481C219.723 200.481 221.523 204.129 221.327 204.936Z" fill="#65617D"/>
<path opacity="0.1" d="M194.197 193.801C194.197 193.801 194.408 194.7 194.572 195.617C193.234 195.864 187.383 196.883 185.919 196.17C184.265 195.363 180.702 194.91 180.702 194.91L180.762 194.705C181.299 194.066 181.805 193.395 181.805 193.395L194.197 193.801Z" fill="black"/>
<path opacity="0.1" d="M218.51 196.419C216.163 196.021 211.044 196.985 209.025 197.399L208.983 195.303L218.213 194.344C218.271 195.041 218.371 195.734 218.51 196.419Z" fill="black"/>
<path d="M223.73 120.03L223.529 127.135C223.529 127.135 223.79 137.969 223.028 139.682C222.266 141.396 222.274 148.299 222.274 148.299C222.274 148.299 222.778 151.575 222.224 152.277C221.671 152.98 222.073 155.605 222.485 156.966C222.898 158.326 222.532 161.704 222.532 161.704L222.433 180.75C222.433 180.75 221.883 185.688 221.178 186.395C220.976 186.605 220.833 186.864 220.762 187.147C220.692 187.43 220.698 187.727 220.779 188.007C220.779 188.007 220.177 190.827 220.328 191.333C220.479 191.838 220.779 192.994 219.626 193.547C218.473 194.1 218.771 195.866 218.771 195.866C216.013 195.211 208.19 196.977 208.19 196.977C208.19 196.977 206.624 193.751 205.98 191.584C205.336 189.417 206.935 188.057 207.986 187.915C209.037 187.774 207.235 185.897 207.235 185.897C207.235 185.897 207.436 185.635 206.935 183.832C206.434 182.029 207.034 177.38 207.196 176.172C207.357 174.964 208.098 169.117 208.098 169.117C208.098 169.117 207.699 161.712 207.999 161.408C208.299 161.104 209.303 158.182 208.803 157.214C208.302 156.247 207.498 149.958 207.498 149.615C207.498 149.271 206.846 141.098 206.846 141.098C206.846 141.098 206.246 135.403 206.395 134.195C206.543 132.987 205.993 128.503 205.993 128.503C205.993 124.771 203.838 120.74 203.838 120.74L203.783 120.885L199.122 133.202C199.122 133.202 198.37 136.928 197.715 139.046C197.305 140.483 196.978 141.944 196.737 143.419L196.693 143.682C196.675 143.794 196.659 143.891 196.649 143.965L196.617 144.169C196.617 144.169 196.967 146.839 196.416 147.696C195.866 148.553 195.24 151.122 195.24 151.837C195.24 152.552 195.287 155.267 195.287 155.267C195.287 155.267 195.49 160.658 194.937 161.263C194.384 161.869 194.676 162.372 194.676 162.372C194.676 162.372 195.582 166.452 195.18 167.511C194.778 168.57 195.081 171.036 195.081 171.036C195.081 171.036 194.285 178.829 194.196 179.238C194.108 179.647 193.544 182.766 194.144 183.017C194.744 183.269 195.9 184.781 195.9 184.781C195.9 184.781 196.161 191.382 195.25 191.885C194.34 192.389 194.846 194.959 194.846 194.959C194.846 194.959 187.575 196.372 185.919 195.565C184.262 194.758 180.701 194.304 180.701 194.304L181.2 192.648C181.171 192.706 180.84 193.243 180.602 191.181C180.341 189.013 182.46 190.072 182.46 190.072C182.46 190.072 184.114 190.476 181.453 187.855C178.792 185.234 180.099 182.564 180.25 182.564C180.401 182.564 180.751 178.685 180.751 178.685C180.751 178.685 181.202 176.366 180.85 174.553C180.498 172.739 180.2 167.094 180.2 167.094C180.2 167.094 180.461 162.812 180 161.25C179.538 159.688 180.3 156.866 180.451 156.208C180.602 155.55 180 149.557 180 149.557C180 149.557 180.503 146.737 180.2 144.672C179.898 142.607 180.503 134.997 180.503 134.997L181.406 126.228C181.406 126.228 182.055 123.508 181.956 122.399C181.857 121.291 182.707 117.42 182.707 117.42C182.707 117.42 182.608 116.008 183.109 115.001C183.61 113.995 183.814 110.669 183.814 110.669L188.629 99.5815L190.977 89.8065L222.83 89.5051C222.83 89.5051 222.947 90.3516 223.138 91.8925C223.328 93.4335 223.605 95.716 223.92 98.5306C224.197 101.088 224.499 104.097 224.797 107.441C225.736 118.115 223.73 120.03 223.73 120.03Z" fill="#9347B2"/>
<path d="M220.772 31.796L213.344 39.7602C213.344 39.7602 203.817 35.9288 204.819 34.6185C205.208 34.1101 205.145 32.522 204.921 30.7452C204.569 27.9568 203.817 24.7413 203.817 24.7413C203.817 24.7413 220.469 22.0211 219.063 24.8409C218.541 25.8734 218.64 27.0763 218.958 28.1874C219.365 29.4806 219.977 30.6992 220.772 31.796Z" fill="#F89D8F"/>
<path opacity="0.1" d="M219.063 24.8409C218.541 25.8734 218.306 25.973 218.627 27.0841C216.449 29.4427 213.671 31.9978 210.237 31.9978C208.392 32.0008 206.572 31.5719 204.921 30.7452C204.569 27.9568 203.817 24.7413 203.817 24.7413C203.817 24.7413 220.469 22.0211 219.063 24.8409Z" fill="black"/>
<path d="M222.175 19.6916C222.198 21.2815 221.907 22.8602 221.317 24.3359C220.728 25.8116 219.852 27.1549 218.741 28.2875C217.63 29.4201 216.306 30.3196 214.846 30.9335C213.386 31.5474 211.819 31.8636 210.236 31.8636C208.653 31.8636 207.086 31.5474 205.626 30.9335C204.166 30.3196 202.842 29.4201 201.731 28.2875C200.62 27.1549 199.744 25.8116 199.155 24.3359C198.565 22.8602 198.274 21.2815 198.297 19.6916C198.297 19.634 198.297 19.5763 198.297 19.5187C198.32 16.3382 199.6 13.2971 201.855 11.0643C204.109 8.83161 207.155 7.59017 210.321 7.61311C213.487 7.63604 216.514 8.92148 218.737 11.1866C220.959 13.4518 222.195 16.5111 222.172 19.6916H222.175Z" fill="#F89D8F"/>
<path opacity="0.1" d="M223.904 98.8215C222.323 98.8346 217.056 98.8791 211.17 98.9735H211.1L209.154 99.0049H209.094C202.116 99.1176 195.239 97.747 192.479 98.0091C186.609 98.562 194.584 92.566 194.584 92.566C194.584 92.566 200.936 94.2694 207.954 93.9235L209.642 93.837C214.977 93.533 220.337 93.0299 223.134 92.186C223.33 93.7427 223.601 96.0174 223.904 98.8215Z" fill="black"/>
<path d="M223.904 98.5201C222.323 98.5201 217.056 98.5778 211.17 98.6695H211.1L209.154 98.7036H209.094C202.116 98.8163 195.239 97.4457 192.479 97.7051C186.609 98.2581 194.584 92.2647 194.584 92.2647C194.584 92.2647 200.936 93.9655 207.954 93.6222L209.642 93.5331C214.977 93.2317 220.337 92.7259 223.134 91.8821C223.33 93.4387 223.601 95.7056 223.904 98.5201Z" fill="#E3A79F"/>
<path opacity="0.1" d="M207.027 35.1216L197.797 39.4561L190.675 94.783C190.675 94.783 194.888 92.8699 197.296 94.078C199.704 95.2861 207.126 94.1802 207.126 94.1802C207.126 94.1802 212.544 93.8762 213.348 94.4816C214.151 95.087 223.579 91.9632 223.579 91.9632C223.579 91.9632 225.285 88.1318 223.981 87.529C222.677 86.9263 224.383 80.9775 224.383 80.9775L223.579 41.0678L221.975 35.9287L217.66 33.3081L213.241 36.8355L211.154 37.1369L207.027 35.1216Z" fill="black"/>
<path d="M207.027 34.5165L197.797 38.8511L190.675 94.1832C190.675 94.1832 194.888 92.2675 197.296 93.4782C199.704 94.689 207.126 93.5778 207.126 93.5778C207.126 93.5778 212.544 93.2764 213.348 93.8792C214.151 94.4819 223.579 91.3608 223.579 91.3608C223.579 91.3608 225.285 87.532 223.981 86.9266C222.677 86.3213 224.383 80.375 224.383 80.375L223.579 40.4601L221.975 35.3211L217.66 32.7004L213.241 36.2304L211.154 36.5292L207.027 34.5165Z" fill="#E7EFFD"/>
<path opacity="0.1" d="M206.875 37.0872C206.875 37.0872 209.533 40.2608 209.483 40.916C209.434 41.5711 209.335 43.133 209.335 43.133L207.326 47.216C207.326 47.216 206.222 52.3053 206.222 53.364C206.222 54.4227 204.467 63.5845 204.467 63.5845L202.361 77.694L199.703 96.1878L202.411 100.874L205.622 98.1533L209.885 65.1962L210.788 58.697C210.788 58.697 211.74 47.0063 211.74 45.7982C211.74 44.5901 211.189 41.4139 211.189 41.4139C211.189 41.4139 211.842 38.3897 214.549 37.6847C217.257 36.9798 214.349 37.5327 214.349 37.5327L212.783 36.2722L211.429 36.8278C211.429 36.8278 207.678 35.6773 206.875 37.0872Z" fill="black"/>
<path d="M206.576 36.7912C206.576 36.7912 209.234 39.9647 209.185 40.6199C209.135 41.2751 209.033 42.837 209.033 42.837L207.027 46.9199C207.027 46.9199 205.937 52.0039 205.937 53.0601C205.937 54.1162 204.181 63.2805 204.181 63.2805L202.06 77.411L199.415 95.8917L202.126 100.58L205.321 97.8519L209.589 64.9027L210.492 58.4035C210.492 58.4035 211.444 46.7129 211.444 45.5021C211.444 44.2914 210.893 41.1178 210.893 41.1178C210.893 41.1178 211.546 38.0962 214.253 37.3887C216.961 36.6811 214.053 37.2393 214.053 37.2393L212.487 35.9788L211.154 36.5291C211.154 36.5291 207.379 35.3734 206.576 36.7912Z" fill="#9347B2"/>
<path opacity="0.1" d="M204.818 31.4949C204.818 31.4949 204.416 31.7962 204.317 33.8115C204.218 35.8268 202.812 40.3631 202.812 40.3631C202.812 40.3631 208.029 36.7335 210.638 37.1371L204.818 31.4949Z" fill="black"/>
<path d="M204.818 30.8894C204.818 30.8894 204.416 31.1908 204.317 33.2087C204.218 35.2266 202.812 39.7603 202.812 39.7603C202.812 39.7603 208.029 36.1333 210.638 36.5369L204.818 30.8894Z" fill="#E7EFFD"/>
<path opacity="0.1" d="M219.066 29.8806L210.838 37.1372C210.838 37.1372 217.762 41.2699 218.665 42.2788C219.567 43.2878 220.47 32.4017 220.47 32.4017L219.066 29.8806Z" fill="black"/>
<path d="M219.366 29.2776L211.153 36.5289C211.153 36.5289 218.074 40.659 218.98 41.668C219.885 42.6769 220.787 31.7908 220.787 31.7908L219.366 29.2776Z" fill="#E7EFFD"/>
<path opacity="0.1" d="M205.119 31.4948C205.119 31.4948 204.216 31.0414 203.363 32.3517C202.51 33.662 200.905 34.2648 200.905 34.2648C200.905 34.2648 191.775 35.7271 191.425 36.9352L187.163 37.1973C187.163 37.1973 185.657 37.3964 185.506 40.5727C185.355 43.7489 184.543 44.0424 184.543 44.0424C184.543 44.0424 182.788 47.1662 182.937 48.7779C183.085 50.3896 181.583 51.1967 181.583 51.1967L187.844 67.5731C187.844 67.5731 188.044 74.3264 186.889 76.7951C185.733 79.2637 183.578 90.1996 183.578 90.1996C183.578 90.1996 184.483 89.9978 184.431 90.6006C184.379 91.2033 183.328 97.8073 183.328 97.8073C183.328 97.8073 183.028 100.428 182.527 101.335C182.026 102.241 181.974 106.98 181.974 106.98L181.17 110.405C181.17 110.405 183.077 114.689 185.986 114.074C188.895 113.458 194.196 102.045 194.196 102.045L197.556 89.6991L200.165 77.5053L200.916 69.2424L202.121 50.9504L203.877 38.8561C203.877 38.8561 205.823 32.3517 205.119 31.4948Z" fill="black"/>
<path d="M204.818 30.8896C204.818 30.8896 203.916 30.4362 203.063 31.7465C202.21 33.0568 200.605 33.6622 200.605 33.6622C200.605 33.6622 191.475 35.1219 191.125 36.3326L186.86 36.5947C186.86 36.5947 185.355 36.7965 185.206 39.9701C185.057 43.1436 184.251 43.4476 184.251 43.4476C184.251 43.4476 182.495 46.5714 182.647 48.1831C182.798 49.7948 181.293 50.602 181.293 50.602L187.554 66.9783C187.554 66.9783 187.755 73.7317 186.602 76.2003C185.449 78.669 183.291 89.6049 183.291 89.6049C183.291 89.6049 184.194 89.4031 184.144 90.0085C184.095 90.6138 183.041 97.2126 183.041 97.2126C183.041 97.2126 182.741 99.8332 182.237 100.74C181.734 101.647 181.687 106.385 181.687 106.385L180.891 109.8C180.891 109.8 182.798 114.084 185.707 113.468C188.616 112.853 193.883 101.427 193.883 101.427L197.245 89.0808L199.854 76.8843L200.608 68.6215L201.811 50.3294L203.566 38.2352C203.566 38.2352 205.52 31.7465 204.818 30.8896Z" fill="#9347B2"/>
<path opacity="0.1" d="M172.614 69.8897L169.705 71.9076C169.705 71.9076 165.27 72.0491 162.077 71.2629L160.46 70.5396L160.134 70.3981L160.468 70.5029C162.145 71.0035 163.457 70.993 164.483 70.6471C168.599 69.2555 168.135 62.4261 167.986 60.88C167.97 60.7254 167.96 60.6179 167.952 60.5865C167.951 60.5804 167.951 60.5742 167.952 60.5681L167.976 60.6074C168.031 60.7002 168.095 60.7879 168.166 60.8695C168.223 60.935 168.283 61.0031 168.349 61.066L169.802 63.9854L169.817 64.1086L172.614 69.8897Z" fill="black"/>
<path d="M182.697 50.188L181.294 50.5916L181.093 53.4743C181.093 53.4743 179.437 53.2122 178.985 55.1882C178.534 57.1641 177.733 58.0709 177.733 58.0709C177.733 58.0709 174.973 60.3901 174.822 62.353L173.118 63.4012C173.118 63.4012 169.153 62.4735 168.253 60.8723C168.253 60.8723 170.058 73.8733 160.427 70.6971C160.427 70.6971 171.211 75.4352 171.712 76.0903C172.213 76.7455 175.526 78.6586 178.534 77.0469C181.542 75.4352 182.197 72.9561 182.197 72.9561C182.197 72.9561 185.105 68.8731 185.207 68.2677C185.309 67.6624 187.555 66.9574 187.555 66.9574L191.87 56.4749L182.697 50.188Z" fill="#9347B2"/>
<path opacity="0.1" d="M217.913 35.9288L219.366 29.2776C219.366 29.2776 220.018 31.4449 220.67 31.948L222.828 33.6095C222.828 33.6095 224.985 34.6184 225.736 34.6184C226.488 34.6184 230.552 35.6667 231.053 36.2301C231.554 36.7936 233.563 36.3821 233.563 36.3821C233.563 36.3821 235.216 36.9351 236.672 37.2889C238.128 37.6427 238.83 40.0615 238.527 41.018C238.406 41.4943 238.407 41.9936 238.53 42.4694C238.653 42.9451 238.894 43.3817 239.231 43.7382C239.831 44.3436 240.134 46.3091 240.134 46.3091C240.871 46.5504 241.484 47.0752 241.837 47.7688C242.341 48.8773 242.19 51.2962 242.19 51.2962L234.716 61.8783C234.716 61.8783 234.815 65.9612 234.515 66.8575C234.215 67.7538 235.558 83.1841 235.558 83.1841L237.123 109.689C237.123 109.689 235.068 111.453 234.616 111.655C234.165 111.856 233.711 102.281 233.711 101.929C233.711 101.578 222.126 84.4944 222.126 84.4944C222.126 84.4944 220.561 81.9733 220.561 81.4204C220.561 80.8674 219.105 75.7755 219.105 75.7755L216.898 65.9508L217.913 35.9288Z" fill="black"/>
<path d="M242.809 50.7197C242.809 51.0656 242.791 51.2962 242.791 51.2962L235.322 61.8705C235.322 61.8705 235.427 65.9508 235.124 66.8497C234.949 67.3738 235.333 72.7985 235.688 77.251C235.948 80.4665 236.178 83.1762 236.178 83.1762L236.838 94.4188L237.73 109.681C237.73 109.681 235.675 111.445 235.223 111.647C234.772 111.849 234.321 102.273 234.321 101.919C234.321 101.565 222.733 84.4865 222.733 84.4865C222.733 84.4865 221.167 81.9655 221.167 81.4125C221.167 80.8596 219.714 75.7677 219.714 75.7677L217.507 65.9403L218.509 35.9105L219.362 29.2593C219.362 29.2593 220.617 31.4265 221.269 31.9271C221.921 32.4276 223.424 33.5912 223.424 33.5912C223.424 33.5912 225.581 34.6001 226.335 34.6001C227.089 34.6001 231.151 35.6484 231.652 36.2118C232.153 36.7753 234.161 36.3638 234.161 36.3638C234.161 36.3638 235.815 36.9168 237.268 37.2706C238.722 37.6243 239.426 40.0432 239.126 40.9971C239.004 41.4735 239.004 41.9733 239.127 42.4495C239.25 42.9257 239.491 43.3628 239.828 43.7199C240.43 44.3253 240.73 46.2882 240.73 46.2882C241.469 46.5311 242.082 47.0577 242.436 47.7531C242.789 48.5367 242.822 49.9335 242.809 50.7197Z" fill="#9347B2"/>
<path opacity="0.1" d="M181.494 184.983C181.755 184.983 192.278 185.386 192.077 187.1C191.876 188.814 181.494 184.983 181.494 184.983Z" fill="black"/>
<path opacity="0.1" d="M183.853 187.855C183.853 187.855 190.925 189.013 189.07 190.072C187.215 191.131 183.853 187.855 183.853 187.855Z" fill="black"/>
<path opacity="0.1" d="M210.134 183.874C210.134 183.874 221.874 184.883 220.118 186.191C218.362 187.499 214.199 187.703 213.998 187.763C213.797 187.824 210.134 183.874 210.134 183.874Z" fill="black"/>
<path opacity="0.1" d="M208.733 189.066C208.733 189.066 215.255 190.174 215.453 191.424C215.651 192.674 208.733 189.066 208.733 189.066Z" fill="black"/>
<path opacity="0.1" d="M212.344 158.729C212.344 158.729 218.312 160.139 218.665 161.088L212.344 158.729Z" fill="black"/>
<path opacity="0.1" d="M189.319 163.064C189.319 163.064 186.21 163.97 189.22 165.784C192.23 167.597 189.319 163.064 189.319 163.064Z" fill="black"/>
<path opacity="0.1" d="M203.113 114.637C203.465 114.637 208.933 112.824 210.838 113.631C212.742 114.438 215.103 114.435 215.103 114.435L203.113 114.637Z" fill="black"/>
<path opacity="0.1" d="M203.818 120.389L203.763 120.887L199.102 133.204C199.102 133.204 198.35 136.931 197.696 139.048C197.285 140.486 196.958 141.946 196.717 143.422L200.857 117.633L203.818 120.389Z" fill="black"/>
<path d="M211.102 98.6694L209.156 98.7035H209.096L207.956 93.6247C208.517 93.5959 209.078 93.567 209.644 93.533L211.102 98.6694Z" fill="#3F3D56"/>
<path d="M234.765 92.5188L233.515 93.5514L229.341 97.0001C229.341 97.0001 218.053 103.049 214.944 97.3041C212.202 92.2437 225 88.6298 228.081 87.841C228.501 87.7336 228.739 87.6812 228.739 87.6812L234.765 92.5188Z" fill="#F89D8F"/>
<path opacity="0.1" d="M186.561 42.9836C186.561 42.9836 188.768 43.99 189.269 45.4025C189.77 46.815 186.561 42.9836 186.561 42.9836Z" fill="black"/>
<path opacity="0.1" d="M179.738 58.0996C179.738 58.0996 176.527 62.0306 177.831 63.5427C179.136 65.0548 179.738 58.0996 179.738 58.0996Z" fill="black"/>
<path opacity="0.1" d="M237.123 45.2007C237.123 45.2007 234.113 45.5021 234.014 48.1227L237.123 45.2007Z" fill="black"/>
<path opacity="0.1" d="M209.232 86.5201C209.532 86.2187 216.456 75.938 218.06 76.8447L209.232 86.5201Z" fill="black"/>
<path opacity="0.1" d="M222.174 19.7019C222.177 21.6769 221.692 23.6217 220.763 25.3624L220.674 25.3467C219.918 25.1868 219.524 24.2984 218.945 23.7481C218.59 23.4082 218.138 23.1885 217.652 23.1199C217.166 23.0513 216.672 23.1372 216.237 23.3655C215.798 23.6299 215.441 24.0119 215.206 24.4688C214.971 24.9257 214.867 25.4393 214.907 25.9521C214.526 24.3378 214.646 22.6212 214.273 21.0043C213.9 19.3874 212.775 17.7521 211.239 17.7233C210.576 17.7233 209.801 17.9696 209.324 17.4612C209.034 17.1598 208.974 16.675 208.758 16.3212C207.659 14.534 204.323 15.4381 202.951 16.3527C201.631 17.2332 199.998 18.7322 198.299 19.5184C198.322 16.3379 199.602 13.2968 201.857 11.0641C204.112 8.83137 207.157 7.58992 210.323 7.61286C213.489 7.6358 216.516 8.92124 218.739 11.1864C220.961 13.4516 222.197 16.5109 222.174 19.6914V19.7019Z" fill="black"/>
<path d="M208.759 16.0279C208.978 16.3922 209.036 16.8691 209.325 17.1679C209.803 17.6658 210.578 17.4116 211.24 17.4299C212.777 17.4561 213.901 19.094 214.274 20.711C214.647 22.3279 214.535 24.0418 214.908 25.6561C214.869 25.1434 214.973 24.63 215.208 24.1735C215.444 23.7169 215.802 23.3355 216.241 23.0722C216.675 22.8441 217.169 22.7581 217.654 22.8263C218.14 22.8944 218.591 23.1133 218.946 23.4522C219.526 24.0051 219.919 24.8909 220.676 25.0507C221.432 25.2106 222.163 24.4821 222.434 23.6801C222.706 22.8782 222.695 22.0003 222.867 21.1696C223.209 19.5972 224.229 18.3105 224.795 16.8167C225.467 14.9977 225.448 12.9937 224.743 11.1876C224.367 10.2415 223.806 9.38982 223.439 8.44377C222.859 7.00767 222.708 5.38811 222.006 4.02014C220.825 1.72971 218.044 0.581868 215.759 1.44406C214.668 1.8555 213.721 2.65217 212.615 3.01644C211.131 3.49339 209.547 3.13437 208.011 2.91947C206.474 2.70458 204.781 2.68362 203.547 3.70567C202.128 4.87185 201.739 7.06532 200.417 8.34681C199.856 8.88404 199.159 9.22734 198.567 9.72526C197.975 10.2232 197.466 10.9622 197.523 11.772C197.612 12.8202 198.63 13.7637 198.254 14.7307C198.118 15.01 197.929 15.2602 197.698 15.4671C196.579 16.6431 195.748 18.0641 195.27 19.6182C197.954 20.4594 200.86 17.4876 202.96 16.0829C204.319 15.1474 207.661 14.2537 208.759 16.0279Z" fill="#141720"/>
<path opacity="0.1" d="M234.766 92.5189L233.516 93.5514C232.415 91.7169 227.895 88.0297 227.895 88.0297L228.09 87.841C228.51 87.7336 228.748 87.6812 228.748 87.6812L234.766 92.5189Z" fill="black"/>
<path d="M235.97 90.6529C235.97 90.6529 235.522 91.7745 235.057 92.7494C234.593 93.7243 234.089 94.5996 234.063 93.8841C234.014 92.4716 228.196 87.7335 228.196 87.7335L228.979 86.963L229.895 86.072L235.97 90.6529Z" fill="#E7EFFD"/>
<path opacity="0.1" d="M236.171 83.1945L236.831 94.4371C235.265 92.0025 230.995 85.7628 228.243 85.9646L234.916 78.2573C235.193 77.9461 235.448 77.616 235.68 77.2693C235.936 80.4848 236.171 83.1945 236.171 83.1945Z" fill="black"/>
<path opacity="0.1" d="M235.97 90.6529C235.97 90.6529 235.521 91.7745 235.057 92.7494C233.309 90.341 230.904 87.495 228.984 86.963L229.9 86.072L235.97 90.6529Z" fill="black"/>
<path d="M240.987 49.8943L242.792 51.3042C242.792 51.3042 245.8 51.3566 246.103 53.875C246.405 56.3935 249.163 57.5439 249.163 57.5439C249.163 57.5439 251.218 59.609 251.218 60.5655C251.218 61.522 252.784 63.2386 252.784 63.3879C252.784 63.5373 254.289 66.6139 254.088 67.1669C253.887 67.7198 255.692 70.1413 255.131 71.0481C254.677 71.8613 254.275 72.7024 253.926 73.5665C253.926 73.5665 251.578 78.1028 250.365 78.9598C249.152 79.8167 243.645 87.0208 243.645 87.0208C243.645 87.0208 237.726 93.8738 237.726 95.9913C237.726 95.9913 231.956 86.3159 228.546 86.557L235.216 78.8471C235.216 78.8471 236.372 77.5892 236.422 76.8318C236.471 76.0744 239.63 72.5995 241.136 72.4475C241.136 72.4475 241.396 70.3824 240.734 70.3326C240.071 70.2828 239.531 68.6685 239.531 68.6685C239.531 68.6685 235.117 63.4272 235.068 60.1017C235.018 56.7761 240.987 49.8943 240.987 49.8943Z" fill="#9347B2"/>
<path opacity="0.1" d="M243.645 54.6746C243.645 54.6746 239.429 57.7983 240.334 58.8047C241.24 59.811 243.645 54.6746 243.645 54.6746Z" fill="black"/>
<path opacity="0.1" d="M243.847 67.5729C243.847 67.5729 251.673 65.0545 252.474 67.5729H243.847Z" fill="black"/>
<path opacity="0.1" d="M195.389 201.461C195.389 201.461 191.176 204.234 189.071 203.82C186.966 203.406 184.806 204.527 184.806 204.527C183.354 206.12 181.524 207.317 179.486 208.005C176.077 209.163 171.313 208.71 168.605 207.801C167.322 207.373 167.22 206.818 167.836 206.137C170.781 206.726 177.363 207.898 179.137 207.046C181.443 205.937 184.753 203.519 184.753 203.519C184.753 203.519 189.071 202.913 189.671 202.913C190.099 202.913 193.43 201.532 195.311 200.738L195.389 201.461Z" fill="black"/>
<path opacity="0.1" d="M220.913 207.133C220.884 207.306 220.871 207.41 220.871 207.41C220.871 207.41 219.867 209.627 214.3 210.435C208.733 211.242 208.733 208.569 208.733 208.569C208.733 208.569 208.754 208.28 208.79 207.848C210.551 208.516 214.396 209.268 220.913 207.133Z" fill="black"/>
<path opacity="0.1" d="M188.643 54.0691C188.643 54.0691 188.643 65.558 187.665 66.6927C186.686 67.8274 188.643 54.0691 188.643 54.0691Z" fill="black"/>
<path opacity="0.1" d="M233.862 57.7717L235.315 61.8783C235.315 61.8783 235.894 57.8477 233.862 57.7717Z" fill="black"/>
<g opacity="0.1">
<path opacity="0.1" d="M198.394 13.7296C198.762 12.7836 197.799 11.8585 197.674 10.8469C197.546 11.1328 197.491 11.4462 197.512 11.7589C197.578 12.5215 198.139 13.2369 198.295 13.9419C198.335 13.8746 198.368 13.8035 198.394 13.7296Z" fill="black"/>
<path opacity="0.1" d="M215.043 24.5819C214.683 22.9911 214.783 21.3087 214.423 19.7206C214.063 18.1325 212.928 16.4658 211.391 16.4396C210.729 16.4396 209.954 16.6833 209.474 16.1775C209.187 15.8787 209.127 15.3913 208.91 15.0375C207.812 13.2502 204.475 14.157 203.101 15.0716C201.048 16.4422 198.23 19.3065 195.601 18.6566C195.473 18.9632 195.355 19.2725 195.259 19.5896C197.943 20.4308 200.849 17.459 202.949 16.0543C204.319 15.1397 207.661 14.2199 208.759 16.0203C208.978 16.3845 209.035 16.8615 209.325 17.1602C209.802 17.6581 210.577 17.4039 211.24 17.4223C212.776 17.4485 213.901 19.0864 214.274 20.7033C214.647 22.3203 214.535 24.0342 214.908 25.6485C214.882 25.2874 214.928 24.9248 215.043 24.5819Z" fill="black"/>
<path opacity="0.1" d="M222.585 22.6897C222.324 23.4917 221.596 24.2254 220.824 24.0603C220.052 23.8952 219.674 23.0121 219.097 22.4618C218.742 22.1223 218.29 21.9031 217.804 21.8349C217.318 21.7668 216.824 21.8531 216.389 22.0818C215.971 22.3328 215.627 22.6916 215.393 23.1211C215.159 23.5505 215.044 24.0349 215.059 24.5242C215.259 23.9075 215.68 23.3873 216.241 23.0645C216.675 22.8364 217.169 22.7505 217.654 22.8186C218.139 22.8867 218.591 23.1056 218.946 23.4445C219.525 23.9974 219.919 24.8832 220.676 25.0431C221.432 25.2029 222.162 24.4744 222.434 23.6725C222.577 23.2017 222.67 22.7167 222.71 22.2259C222.678 22.3829 222.636 22.5378 222.585 22.6897Z" fill="black"/>
<path opacity="0.1" d="M224.943 15.8262C224.38 17.3199 223.357 18.6093 223.018 20.1817C222.95 20.4988 222.911 20.8237 222.872 21.1487C223.216 19.5763 224.231 18.2974 224.795 16.8089C225.045 16.135 225.201 15.4294 225.259 14.7124C225.182 15.0911 225.076 15.4635 224.943 15.8262Z" fill="black"/>
</g>
<path d="M156.653 53.3966L156.625 53.4108C156.576 53.4355 156.556 53.4954 156.581 53.5445L157.339 55.0565C157.363 55.1056 157.423 55.1254 157.472 55.1007L157.5 55.0865C157.549 55.0618 157.568 55.0019 157.544 54.9528L156.786 53.4408C156.761 53.3917 156.702 53.3719 156.653 53.3966Z" fill="#3A3768"/>
<path d="M149.152 55.5034L149.135 55.5116C149.108 55.5253 149.097 55.5584 149.111 55.5855L149.341 56.0442C149.355 56.0714 149.388 56.0823 149.415 56.0686L149.431 56.0604C149.458 56.0467 149.469 56.0136 149.455 55.9864L149.225 55.5277C149.212 55.5006 149.179 55.4897 149.152 55.5034Z" fill="#3A3768"/>
<path d="M149.668 56.5482L149.652 56.5564C149.621 56.5721 149.608 56.6099 149.624 56.6409L150.053 57.4975C150.069 57.5286 150.107 57.541 150.137 57.5254L150.154 57.5172C150.185 57.5015 150.197 57.4637 150.181 57.4327L149.752 56.5761C149.736 56.545 149.699 56.5326 149.668 56.5482Z" fill="#3A3768"/>
<path d="M150.323 57.8565L150.307 57.8647C150.277 57.8797 150.266 57.916 150.28 57.9457L150.716 58.814C150.731 58.8438 150.767 58.8557 150.796 58.8408L150.813 58.8325C150.842 58.8175 150.854 58.7813 150.839 58.7516L150.404 57.8832C150.389 57.8535 150.353 57.8415 150.323 57.8565Z" fill="#3A3768"/>
<path d="M154.536 50.5025L148.753 53.4281C148.465 53.5739 148.349 53.9269 148.494 54.2164L154.957 67.1084C155.102 67.3979 155.454 67.5144 155.742 67.3686L161.525 64.443C161.813 64.2972 161.929 63.9442 161.784 63.6547L155.321 50.7628C155.176 50.4732 154.825 50.3567 154.536 50.5025Z" fill="#3A3768"/>
<path d="M153.739 51.3487C153.706 51.3636 153.676 51.3854 153.652 51.4126C153.627 51.4398 153.609 51.4719 153.598 51.5067C153.586 51.5415 153.582 51.5783 153.586 51.6148C153.59 51.6512 153.601 51.6864 153.619 51.7182L153.645 51.768C153.663 51.8 153.674 51.8353 153.678 51.8719C153.682 51.9085 153.677 51.9453 153.666 51.9802C153.654 52.015 153.636 52.047 153.611 52.0741C153.586 52.1012 153.556 52.1228 153.523 52.1375L150.63 53.6025C150.598 53.6207 150.563 53.632 150.527 53.6357C150.49 53.6395 150.454 53.6355 150.419 53.6242C150.384 53.6128 150.353 53.5943 150.325 53.5698C150.298 53.5453 150.277 53.5153 150.262 53.4819L150.236 53.4295C150.221 53.3961 150.199 53.3661 150.172 53.3416C150.145 53.3171 150.113 53.2986 150.078 53.2872C150.044 53.2759 150.007 53.2719 149.971 53.2757C149.935 53.2794 149.9 53.2907 149.868 53.3089L149.304 53.592C149.243 53.6228 149.188 53.6657 149.142 53.7181C149.097 53.7705 149.063 53.8313 149.041 53.8971C149.02 53.9629 149.011 54.0323 149.017 54.1014C149.022 54.1705 149.041 54.2378 149.072 54.2995L155.226 66.572C155.257 66.634 155.3 66.6893 155.352 66.7346C155.404 66.78 155.464 66.8145 155.53 66.8362C155.595 66.8579 155.665 66.8663 155.733 66.861C155.802 66.8557 155.869 66.8367 155.931 66.8052L160.978 64.2501C161.04 64.2192 161.095 64.1765 161.139 64.1243C161.184 64.0721 161.219 64.0115 161.24 63.946C161.262 63.8806 161.27 63.8114 161.265 63.7426C161.26 63.6738 161.242 63.6067 161.211 63.5451L155.064 51.2701C155.033 51.2086 154.991 51.1539 154.939 51.109C154.887 51.0642 154.826 51.0301 154.761 51.0086C154.696 50.9872 154.627 50.9789 154.559 50.9842C154.491 50.9895 154.424 51.0083 154.363 51.0395L153.739 51.3487Z" fill="url(#paint3_linear_32_2211)"/>
<path d="M152.067 52.2754L151.282 52.6727C151.235 52.6961 151.217 52.7528 151.24 52.7993L151.253 52.8251C151.276 52.8716 151.333 52.8904 151.379 52.8669L152.164 52.4697C152.211 52.4463 152.229 52.3895 152.206 52.343L152.193 52.3173C152.17 52.2707 152.113 52.252 152.067 52.2754Z" fill="#E6E8EC"/>
<path d="M152.45 52.3105C152.518 52.3105 152.573 52.2554 152.573 52.1874C152.573 52.1194 152.518 52.0642 152.45 52.0642C152.383 52.0642 152.328 52.1194 152.328 52.1874C152.328 52.2554 152.383 52.3105 152.45 52.3105Z" fill="#E6E8EC"/>
<path opacity="0.1" d="M25.3064 6.83733C25.3064 6.83733 50.6476 5.30164 47.6606 23.1403C47.6606 23.1403 48.2528 26.2851 45.4093 27.7238C45.4093 27.7238 45.3649 26.4135 42.8005 26.8511C41.8905 27.0028 40.9659 27.0468 40.0457 26.9822C38.8026 26.8988 37.6207 26.4092 36.6804 25.588C36.6804 25.588 29.5691 22.6398 26.796 10.936C26.796 10.936 24.7481 8.38351 24.829 7.72835L29.1047 9.56279C29.1047 9.56279 27.6438 12.663 28.7943 15.2391C28.7943 15.2391 28.9325 9.67548 29.7543 9.80651C29.9212 9.83534 31.9769 10.881 31.9769 10.881C31.9769 10.881 29.4621 16.2795 31.3586 20.2026C31.3586 20.2026 30.6386 13.5514 32.7621 11.2714L35.7726 13.0378C35.7726 13.0378 32.8326 18.6118 34.8256 23.1639C34.8256 23.1639 34.3039 16.1851 36.3909 13.4675L39.1196 15.6034C39.1196 15.6034 36.3596 21.1067 38.0422 24.8725C38.0422 24.8725 38.2613 16.7486 39.7092 16.1353C39.7092 16.1353 42.0962 18.2502 42.4614 19.1176C42.4614 19.1176 40.5701 23.1062 41.744 25.2132C41.744 25.2132 42.4614 19.8016 43.0484 19.7754C43.0484 19.7754 45.4275 23.3631 45.6753 25.8186C45.6753 25.8186 45.571 22.1628 43.6249 19.4321C43.6249 19.4321 45.9232 19.8278 47.2771 21.3268C47.2771 21.3268 46.9067 18.7901 43.0484 18.5699C43.0484 18.5699 41.084 15.8497 40.557 15.6872C40.557 15.6872 44.3945 15.3649 46.7215 16.4C46.7215 16.4 44.6736 14.0074 39.8553 15.0897L37.1631 12.8831C37.1631 12.8831 42.2136 12.186 44.3553 12.9539C44.3553 12.9539 41.8901 10.839 36.4352 12.38L33.4978 10.6215C33.4978 10.6215 37.8048 9.68859 40.3718 10.0266C40.3718 10.0266 37.6639 8.55909 32.6395 10.1498L30.5525 9.20377C30.5525 9.20377 33.7091 8.58006 34.6326 8.48309C35.5561 8.38613 35.6057 8.12669 35.6057 8.12669C33.607 7.79292 31.5553 8.02243 29.6786 8.78971C29.6786 8.78971 25.2307 7.11774 25.3064 6.83733Z" fill="url(#paint4_linear_32_2211)"/>
<path opacity="0.1" d="M39.4983 54.5589C39.4983 54.5589 50.9481 53.8645 49.5993 61.9256C49.5993 61.9256 49.8602 63.3486 48.5819 63.9959C48.5819 63.9959 48.5611 63.3984 47.408 63.6001C46.9972 63.6705 46.5793 63.6908 46.1636 63.6604C45.602 63.6227 45.068 63.4018 44.6428 63.0315C44.6428 63.0315 41.4236 61.6949 40.1714 56.4091C40.1714 56.4091 39.2453 55.2587 39.2818 54.9625L41.2149 55.7906C41.2149 55.7906 40.5549 57.1901 41.074 58.3536C41.074 58.3536 41.1366 55.8404 41.5071 55.9007C41.5827 55.9138 42.5114 56.3855 42.5114 56.3855C42.5114 56.3855 41.3766 58.8253 42.2323 60.5969C42.2323 60.5969 41.9088 57.5936 42.8662 56.5611L44.228 57.3604C44.228 57.3604 42.8897 59.8788 43.7923 61.9491C43.7923 61.9491 43.5601 58.8044 44.5045 57.5674L45.7384 58.5318C45.7384 58.5318 44.4915 61.0162 45.2506 62.7248C45.2506 62.7248 45.3497 59.056 46.0045 58.7756C46.0045 58.7756 47.0819 59.7295 47.2489 60.1226C47.2489 60.1226 46.3932 61.9256 46.9228 62.8769C46.9228 62.8769 47.2489 60.4318 47.515 60.4213C47.515 60.4213 48.5898 62.0409 48.7019 63.152C48.7019 63.152 48.655 61.4984 47.7758 60.2693C48.395 60.3883 48.9662 60.6861 49.4193 61.1263C49.4193 61.1263 49.2524 59.981 47.5098 59.8815C47.5098 59.8815 46.6228 58.6524 46.3854 58.5711C46.3854 58.5711 48.1176 58.4244 49.1689 58.8935C49.1689 58.8935 48.2454 57.8138 46.0671 58.3038L44.8488 57.3054C44.8488 57.3054 47.1315 56.9935 48.0993 57.3394C48.0993 57.3394 46.9854 56.3829 44.5228 57.0774L43.1975 56.2912C43.1975 56.2912 45.1436 55.8719 46.3019 56.0291C46.3019 56.0291 45.0784 55.3661 42.8088 56.0842L41.8618 55.657C41.8618 55.657 43.2862 55.374 43.7062 55.3294C44.1262 55.2849 44.1445 55.1696 44.1445 55.1696C43.242 55.0181 42.3153 55.1215 41.4679 55.4683C41.4679 55.4683 39.4566 54.6847 39.4983 54.5589Z" fill="url(#paint5_linear_32_2211)"/>
<path opacity="0.1" d="M0.217578 11.4758C0.217578 11.4758 11.6673 10.7839 10.3186 18.8424C10.3186 18.8424 10.5794 20.268 9.30117 20.9153C9.30117 20.9153 9.2803 20.3178 8.12724 20.5196C7.71625 20.5887 7.29859 20.6089 6.88288 20.5799C6.32101 20.5412 5.78704 20.3195 5.36199 19.9483C5.36199 19.9483 2.14282 18.6144 0.89063 13.3286C0.89063 13.3286 -0.0354697 12.1755 0.00105252 11.8794L1.93412 12.7075C1.93412 12.7075 1.27411 14.1095 1.79325 15.2731C1.79325 15.2731 1.85586 12.7599 2.2263 12.8202C2.30195 12.8202 3.23066 13.305 3.23066 13.305C3.23066 13.305 2.09586 15.7448 2.95153 17.5164C2.95153 17.5164 2.62804 14.5105 3.58545 13.4806L4.9472 14.2668C4.9472 14.2668 3.61936 16.7878 4.51937 18.8424C4.51937 18.8424 4.28719 15.6976 5.23155 14.4633L6.46548 15.4277C6.46548 15.4277 5.21851 17.9121 5.97765 19.6207C5.97765 19.6207 6.07678 15.9518 6.73157 15.6741C6.73157 15.6741 7.80898 16.628 7.97594 17.0211C7.97594 17.0211 7.12028 18.8241 7.64985 19.7753C7.64985 19.7753 7.97594 17.3303 8.24203 17.3172C8.24203 17.3172 9.31683 18.9394 9.429 20.0479C9.429 20.0479 9.38204 18.3969 8.5029 17.1652C9.12251 17.2828 9.69403 17.5808 10.1464 18.0221C10.1464 18.0221 9.97944 16.8743 8.23681 16.7747C8.23681 16.7747 7.34984 15.5456 7.11245 15.4644C7.11245 15.4644 8.84464 15.3176 9.89596 15.7867C9.89596 15.7867 8.97247 14.7044 6.79418 15.1971L5.58634 14.2091C5.58634 14.2091 7.86898 13.8946 8.83682 14.2432C8.83682 14.2432 7.72289 13.2867 5.26025 13.9811L3.93502 13.1949C3.93502 13.1949 5.88113 12.773 7.0394 12.9329C7.0394 12.9329 5.81591 12.2698 3.54632 12.9879L2.59935 12.5607C2.59935 12.5607 4.02632 12.2803 4.44372 12.2358C4.86112 12.1912 4.88199 12.0759 4.88199 12.0759C3.97755 11.9175 3.04706 12.0155 2.19499 12.3589C2.19499 12.3589 0.183664 11.6042 0.217578 11.4758Z" fill="url(#paint6_linear_32_2211)"/>
<path d="M258.899 195.08C265.582 195.08 271.001 194.16 271.001 193.026C271.001 191.891 265.582 190.971 258.899 190.971C252.215 190.971 246.797 191.891 246.797 193.026C246.797 194.16 252.215 195.08 258.899 195.08Z" fill="#9347B2"/>
<path d="M263.902 189.666C264.423 189.181 264.906 188.618 265.057 187.915C265.209 187.213 264.911 186.388 264.251 186.133C263.51 185.85 262.72 186.367 262.12 186.885C261.52 187.404 260.831 188.002 260.046 187.892C260.45 187.524 260.752 187.058 260.923 186.538C261.094 186.018 261.128 185.462 261.022 184.925C260.991 184.704 260.901 184.496 260.761 184.322C260.351 183.88 259.605 184.06 259.112 184.417C257.547 185.523 257.111 187.659 257.103 189.582C256.944 188.888 257.077 188.164 257.075 187.454C257.072 186.744 256.876 185.955 256.292 185.572C255.92 185.372 255.501 185.274 255.079 185.287C254.375 185.261 253.592 185.331 253.112 185.848C252.515 186.49 252.669 187.567 253.19 188.274C253.712 188.982 254.495 189.425 255.225 189.912C255.809 190.261 256.306 190.738 256.681 191.306C256.725 191.39 256.761 191.478 256.788 191.568H261.199C262.18 191.058 263.089 190.418 263.902 189.666Z" fill="#9347B2"/>
<path d="M15.1288 210.225C20.3746 210.225 24.6271 209.502 24.6271 208.61C24.6271 207.719 20.3746 206.996 15.1288 206.996C9.88294 206.996 5.63037 207.719 5.63037 208.61C5.63037 209.502 9.88294 210.225 15.1288 210.225Z" fill="#9347B2"/>
<path d="M19.0553 205.971C19.4892 205.616 19.8058 205.138 19.9631 204.598C20.0779 204.053 19.8483 203.398 19.3292 203.199C18.7474 202.976 18.1266 203.38 17.657 203.788C17.1874 204.197 16.6448 204.664 16.0292 204.575C16.3462 204.286 16.5835 203.92 16.7179 203.513C16.8523 203.105 16.8792 202.669 16.7961 202.247C16.7691 202.073 16.6951 201.909 16.5822 201.773C16.2587 201.427 15.6744 201.577 15.2778 201.849C14.0491 202.717 13.7126 204.394 13.6996 205.903C13.5769 205.358 13.6813 204.792 13.6761 204.234C13.6709 203.676 13.5222 203.055 13.0526 202.756C12.7605 202.598 12.432 202.52 12.1004 202.531C11.55 202.51 10.9343 202.567 10.556 202.971C10.0891 203.477 10.2091 204.323 10.616 204.876C11.023 205.429 11.6439 205.78 12.2152 206.163C12.6733 206.437 13.0639 206.811 13.3578 207.258C13.3917 207.32 13.4205 207.385 13.4439 207.452H16.9057C17.6858 207.059 18.409 206.561 19.0553 205.971Z" fill="#9347B2"/>
<path d="M39.0741 198.11C44.3199 198.11 48.5724 197.387 48.5724 196.495C48.5724 195.604 44.3199 194.881 39.0741 194.881C33.8283 194.881 29.5757 195.604 29.5757 196.495C29.5757 197.387 33.8283 198.11 39.0741 198.11Z" fill="#9347B2"/>
<path d="M43.002 193.856C43.4352 193.501 43.7509 193.022 43.9072 192.483C44.0246 191.938 43.7924 191.286 43.2733 191.086C42.6941 190.861 42.0733 191.267 41.6011 191.676C41.1289 192.085 40.5915 192.551 39.9758 192.462C40.2926 192.173 40.5295 191.807 40.6635 191.398C40.7974 190.99 40.8239 190.554 40.7402 190.132C40.7132 189.959 40.6392 189.795 40.5263 189.661C40.2054 189.312 39.6211 189.462 39.235 189.734C38.0063 190.604 37.6697 192.279 37.6567 193.788C37.5315 193.243 37.6358 192.677 37.6332 192.119C37.6306 191.561 37.4767 190.942 37.0097 190.641C36.7177 190.483 36.389 190.406 36.0575 190.418C35.5045 190.397 34.8888 190.452 34.5132 190.858C34.0436 191.362 34.1662 192.208 34.5732 192.764C34.9801 193.319 35.601 193.665 36.1723 194.05C36.6298 194.324 37.0203 194.698 37.3149 195.143C37.3495 195.206 37.3774 195.271 37.3984 195.34H40.8602C41.6377 194.945 42.3582 194.446 43.002 193.856Z" fill="#9347B2"/>
<path d="M146.926 59.3812V88.3471C146.927 88.7289 146.852 89.1072 146.707 89.4601C146.562 89.813 146.349 90.1337 146.08 90.4037C145.811 90.6737 145.492 90.8877 145.141 91.0336C144.789 91.1794 144.413 91.2541 144.033 91.2534H140.926V56.4775H144.033C144.413 56.4769 144.789 56.5515 145.14 56.6971C145.491 56.8428 145.81 57.0566 146.079 57.3263C146.348 57.596 146.561 57.9164 146.706 58.269C146.852 58.6216 146.926 58.9996 146.926 59.3812Z" fill="#C7CCE1"/>
<path opacity="0.2" d="M144.598 56.5326V91.1983C144.412 91.2352 144.222 91.2536 144.032 91.2534H143.557V56.4775H144.032C144.222 56.4773 144.412 56.4957 144.598 56.5326Z" fill="black"/>
<path d="M133.21 101.586H122.008V191.815H133.21V101.586Z" fill="#DCDFED"/>
<path d="M135.874 201.448H118.059V203.961H135.874V201.448Z" fill="#C7CCE1"/>
<path opacity="0.1" d="M135.874 201.448H118.059V202.858H135.874V201.448Z" fill="black"/>
<path opacity="0.1" d="M133.21 190.03H122.008V191.812H133.21V190.03Z" fill="black"/>
<path d="M114.141 190.4H139.79C141.184 190.4 142.565 190.676 143.853 191.212C145.141 191.748 146.312 192.533 147.298 193.524C148.284 194.514 149.066 195.69 149.599 196.984C150.133 198.278 150.408 199.665 150.408 201.066V202.706H103.523V201.066C103.523 199.665 103.798 198.278 104.332 196.984C104.865 195.69 105.647 194.514 106.633 193.524C107.619 192.533 108.79 191.748 110.078 191.212C111.366 190.676 112.747 190.4 114.141 190.4Z" fill="#DCDFED"/>
<path opacity="0.1" d="M133.21 114.008H122.008V124.831H133.21V114.008Z" fill="black"/>
<path opacity="0.1" d="M133.21 113.272H122.008V124.095H133.21V113.272Z" fill="black"/>
<path d="M134.375 113.639H120.969V124.462H134.375V113.639Z" fill="#DCDFED"/>
<path d="M139.243 94.7883V99.2801C139.243 100.398 138.801 101.47 138.015 102.26C137.228 103.05 136.161 103.494 135.049 103.494H120.179C119.066 103.494 117.999 103.05 117.213 102.26C116.426 101.47 115.984 100.398 115.984 99.2801V94.7883C115.984 94.2353 116.093 93.6877 116.304 93.1769C116.515 92.6661 116.824 92.202 117.214 91.8112C117.603 91.4204 118.065 91.1105 118.574 90.8992C119.083 90.6878 119.628 90.5792 120.179 90.5796H135.049C135.599 90.5792 136.144 90.6878 136.653 90.8992C137.162 91.1105 137.624 91.4204 138.014 91.8112C138.403 92.202 138.712 92.6661 138.923 93.1769C139.134 93.6877 139.243 94.2353 139.243 94.7883Z" fill="#C7CCE1"/>
<path opacity="0.1" d="M139.244 94.7883V95.2469C137.879 97.0451 136.119 98.5025 134.101 99.5056C132.083 100.509 129.862 101.031 127.611 101.031C125.359 101.031 123.138 100.509 121.121 99.5056C119.103 98.5025 117.343 97.0451 115.977 95.2469V94.7883C115.977 94.2353 116.086 93.6877 116.297 93.1769C116.508 92.6661 116.817 92.202 117.207 91.8112C117.596 91.4204 118.059 91.1105 118.567 90.8992C119.076 90.6878 119.621 90.5793 120.172 90.5796H135.042C135.593 90.5782 136.139 90.6861 136.649 90.8969C137.158 91.1078 137.622 91.4175 138.012 91.8084C138.402 92.1994 138.712 92.6638 138.923 93.1751C139.135 93.6864 139.244 94.2346 139.244 94.7883Z" fill="black"/>
<path d="M114.162 52.9368H141.061C141.374 52.9368 141.675 53.0618 141.896 53.2845C142.118 53.5071 142.243 53.8091 142.243 54.1239V87.9301C142.243 91.3087 140.907 94.5489 138.528 96.9379C136.15 99.3269 132.925 100.669 129.562 100.669H125.662C122.298 100.669 119.073 99.3269 116.695 96.9379C114.317 94.5489 112.98 91.3087 112.98 87.9301V54.1239C112.98 53.8091 113.105 53.5071 113.327 53.2845C113.548 53.0618 113.849 52.9368 114.162 52.9368Z" fill="#C7CCE1"/>
<path d="M119.133 35.4758H136.09C137.284 35.4758 138.429 35.9523 139.274 36.8006C140.118 37.6489 140.592 38.7994 140.592 39.999V52.958C140.592 53.3903 140.421 53.8049 140.117 54.1106C139.813 54.4163 139.4 54.5881 138.97 54.5881H116.253C116.04 54.5881 115.829 54.5459 115.632 54.464C115.435 54.3821 115.256 54.262 115.106 54.1106C114.955 53.9593 114.835 53.7796 114.754 53.5818C114.672 53.384 114.63 53.1721 114.63 52.958V39.9964C114.63 38.7967 115.105 37.6462 115.949 36.798C116.794 35.9497 117.939 35.4731 119.133 35.4731V35.4758Z" fill="#C7CCE1"/>
<path opacity="0.2" d="M138.018 48.8826H117.693V50.2348H138.018V48.8826Z" fill="black"/>
<path opacity="0.1" d="M139.242 57.2764H115.979V74.2345H139.242V57.2764Z" fill="black"/>
<path d="M139.242 56.9072H115.979V73.8654H139.242V56.9072Z" fill="url(#paint7_linear_32_2211)"/>
<g opacity="0.1">
<path opacity="0.1" d="M121.136 76.7712H116.315C116.201 76.7712 116.109 76.8639 116.109 76.9783V78.4406C116.109 78.5549 116.201 78.6476 116.315 78.6476H121.136C121.25 78.6476 121.342 78.5549 121.342 78.4406V76.9783C121.342 76.8639 121.25 76.7712 121.136 76.7712Z" fill="black"/>
<path opacity="0.1" d="M127.059 76.7712H122.238C122.124 76.7712 122.032 76.8639 122.032 76.9783V78.4406C122.032 78.5549 122.124 78.6476 122.238 78.6476H127.059C127.173 78.6476 127.265 78.5549 127.265 78.4406V76.9783C127.265 76.8639 127.173 76.7712 127.059 76.7712Z" fill="black"/>
<path opacity="0.1" d="M132.98 76.7712H128.159C128.045 76.7712 127.953 76.8639 127.953 76.9783V78.4406C127.953 78.5549 128.045 78.6476 128.159 78.6476H132.98C133.093 78.6476 133.186 78.5549 133.186 78.4406V76.9783C133.186 76.8639 133.093 76.7712 132.98 76.7712Z" fill="black"/>
<path opacity="0.1" d="M138.905 76.7712H134.084C133.97 76.7712 133.878 76.8639 133.878 76.9783V78.4406C133.878 78.5549 133.97 78.6476 134.084 78.6476H138.905C139.019 78.6476 139.111 78.5549 139.111 78.4406V76.9783C139.111 76.8639 139.019 76.7712 138.905 76.7712Z" fill="black"/>
<path opacity="0.1" d="M121.136 80.4456H116.315C116.201 80.4456 116.109 80.5382 116.109 80.6526V82.1149C116.109 82.2292 116.201 82.3219 116.315 82.3219H121.136C121.25 82.3219 121.342 82.2292 121.342 82.1149V80.6526C121.342 80.5382 121.25 80.4456 121.136 80.4456Z" fill="black"/>
<path opacity="0.1" d="M127.059 80.4456H122.238C122.124 80.4456 122.032 80.5382 122.032 80.6526V82.1149C122.032 82.2292 122.124 82.3219 122.238 82.3219H127.059C127.173 82.3219 127.265 82.2292 127.265 82.1149V80.6526C127.265 80.5382 127.173 80.4456 127.059 80.4456Z" fill="black"/>
<path opacity="0.1" d="M132.98 80.4456H128.159C128.045 80.4456 127.953 80.5382 127.953 80.6526V82.1149C127.953 82.2292 128.045 82.3219 128.159 82.3219H132.98C133.093 82.3219 133.186 82.2292 133.186 82.1149V80.6526C133.186 80.5382 133.093 80.4456 132.98 80.4456Z" fill="black"/>
<path opacity="0.1" d="M121.136 84.0278H116.315C116.201 84.0278 116.109 84.1205 116.109 84.2349V85.6972C116.109 85.8115 116.201 85.9042 116.315 85.9042H121.136C121.25 85.9042 121.342 85.8115 121.342 85.6972V84.2349C121.342 84.1205 121.25 84.0278 121.136 84.0278Z" fill="black"/>
<path opacity="0.1" d="M127.059 84.0278H122.238C122.124 84.0278 122.032 84.1205 122.032 84.2349V85.6972C122.032 85.8115 122.124 85.9042 122.238 85.9042H127.059C127.173 85.9042 127.265 85.8115 127.265 85.6972V84.2349C127.265 84.1205 127.173 84.0278 127.059 84.0278Z" fill="black"/>
<path opacity="0.1" d="M132.98 84.0278H128.159C128.045 84.0278 127.953 84.1205 127.953 84.2349V85.6972C127.953 85.8115 128.045 85.9042 128.159 85.9042H132.98C133.093 85.9042 133.186 85.8115 133.186 85.6972V84.2349C133.186 84.1205 133.093 84.0278 132.98 84.0278Z" fill="black"/>
<path opacity="0.1" d="M121.136 87.9797H116.315C116.201 87.9797 116.109 88.0724 116.109 88.1868V89.6491C116.109 89.7634 116.201 89.8561 116.315 89.8561H121.136C121.25 89.8561 121.342 89.7634 121.342 89.6491V88.1868C121.342 88.0724 121.25 87.9797 121.136 87.9797Z" fill="black"/>
<path opacity="0.1" d="M127.059 87.9797H122.238C122.124 87.9797 122.032 88.0724 122.032 88.1868V89.6491C122.032 89.7634 122.124 89.8561 122.238 89.8561H127.059C127.173 89.8561 127.265 89.7634 127.265 89.6491V88.1868C127.265 88.0724 127.173 87.9797 127.059 87.9797Z" fill="black"/>
<path opacity="0.1" d="M132.98 87.9797H128.159C128.045 87.9797 127.953 88.0724 127.953 88.1868V89.6491C127.953 89.7634 128.045 89.8561 128.159 89.8561H132.98C133.093 89.8561 133.186 89.7634 133.186 89.6491V88.1868C133.186 88.0724 133.093 87.9797 132.98 87.9797Z" fill="black"/>
<path opacity="0.1" d="M138.905 80.4456H134.084C133.97 80.4456 133.878 80.5382 133.878 80.6526V82.1149C133.878 82.2292 133.97 82.3219 134.084 82.3219H138.905C139.019 82.3219 139.111 82.2292 139.111 82.1149V80.6526C139.111 80.5382 139.019 80.4456 138.905 80.4456Z" fill="black"/>
<path opacity="0.1" d="M138.322 83.8259H134.711C134.427 83.8259 134.197 84.0571 134.197 84.3422V89.9975C134.197 90.2827 134.427 90.5138 134.711 90.5138H138.322C138.605 90.5138 138.836 90.2827 138.836 89.9975V84.3422C138.836 84.0571 138.605 83.8259 138.322 83.8259Z" fill="black"/>
</g>
<path d="M121.136 76.4021H116.315C116.201 76.4021 116.109 76.4948 116.109 76.6091V78.0714C116.109 78.1858 116.201 78.2785 116.315 78.2785H121.136C121.25 78.2785 121.342 78.1858 121.342 78.0714V76.6091C121.342 76.4948 121.25 76.4021 121.136 76.4021Z" fill="#F2F3F3"/>
<path d="M127.057 76.4021H122.236C122.123 76.4021 122.03 76.4948 122.03 76.6091V78.0714C122.03 78.1858 122.123 78.2785 122.236 78.2785H127.057C127.171 78.2785 127.263 78.1858 127.263 78.0714V76.6091C127.263 76.4948 127.171 76.4021 127.057 76.4021Z" fill="#F2F3F3"/>
<path d="M132.98 76.4021H128.159C128.045 76.4021 127.953 76.4948 127.953 76.6091V78.0714C127.953 78.1858 128.045 78.2785 128.159 78.2785H132.98C133.094 78.2785 133.186 78.1858 133.186 78.0714V76.6091C133.186 76.4948 133.094 76.4021 132.98 76.4021Z" fill="#F2F3F3"/>
<path d="M138.904 76.4021H134.083C133.969 76.4021 133.876 76.4948 133.876 76.6091V78.0714C133.876 78.1858 133.969 78.2785 134.083 78.2785H138.904C139.017 78.2785 139.11 78.1858 139.11 78.0714V76.6091C139.11 76.4948 139.017 76.4021 138.904 76.4021Z" fill="#D44F6A"/>
<path d="M121.136 80.0759H116.315C116.201 80.0759 116.109 80.1686 116.109 80.283V81.7453C116.109 81.8596 116.201 81.9523 116.315 81.9523H121.136C121.25 81.9523 121.342 81.8596 121.342 81.7453V80.283C121.342 80.1686 121.25 80.0759 121.136 80.0759Z" fill="#F2F3F3"/>
<path d="M127.057 80.0759H122.236C122.123 80.0759 122.03 80.1686 122.03 80.283V81.7453C122.03 81.8596 122.123 81.9523 122.236 81.9523H127.057C127.171 81.9523 127.263 81.8596 127.263 81.7453V80.283C127.263 80.1686 127.171 80.0759 127.057 80.0759Z" fill="#F2F3F3"/>
<path d="M132.98 80.0759H128.159C128.045 80.0759 127.953 80.1686 127.953 80.283V81.7453C127.953 81.8596 128.045 81.9523 128.159 81.9523H132.98C133.094 81.9523 133.186 81.8596 133.186 81.7453V80.283C133.186 80.1686 133.094 80.0759 132.98 80.0759Z" fill="#F2F3F3"/>
<path d="M121.136 83.6587H116.315C116.201 83.6587 116.109 83.7514 116.109 83.8657V85.328C116.109 85.4424 116.201 85.5351 116.315 85.5351H121.136C121.25 85.5351 121.342 85.4424 121.342 85.328V83.8657C121.342 83.7514 121.25 83.6587 121.136 83.6587Z" fill="#F2F3F3"/>
<path d="M127.057 83.6587H122.236C122.123 83.6587 122.03 83.7514 122.03 83.8657V85.328C122.03 85.4424 122.123 85.5351 122.236 85.5351H127.057C127.171 85.5351 127.263 85.4424 127.263 85.328V83.8657C127.263 83.7514 127.171 83.6587 127.057 83.6587Z" fill="#F2F3F3"/>
<path d="M132.98 83.6587H128.159C128.045 83.6587 127.953 83.7514 127.953 83.8657V85.328C127.953 85.4424 128.045 85.5351 128.159 85.5351H132.98C133.094 85.5351 133.186 85.4424 133.186 85.328V83.8657C133.186 83.7514 133.094 83.6587 132.98 83.6587Z" fill="#F2F3F3"/>
<path d="M121.136 87.6106H116.315C116.201 87.6106 116.109 87.7033 116.109 87.8176V89.2799C116.109 89.3943 116.201 89.487 116.315 89.487H121.136C121.25 89.487 121.342 89.3943 121.342 89.2799V87.8176C121.342 87.7033 121.25 87.6106 121.136 87.6106Z" fill="#F2F3F3"/>
<path d="M127.057 87.6106H122.236C122.123 87.6106 122.03 87.7033 122.03 87.8176V89.2799C122.03 89.3943 122.123 89.487 122.236 89.487H127.057C127.171 89.487 127.263 89.3943 127.263 89.2799V87.8176C127.263 87.7033 127.171 87.6106 127.057 87.6106Z" fill="#F2F3F3"/>
<path d="M132.98 87.6106H128.159C128.045 87.6106 127.953 87.7033 127.953 87.8176V89.2799C127.953 89.3943 128.045 89.487 128.159 89.487H132.98C133.094 89.487 133.186 89.3943 133.186 89.2799V87.8176C133.186 87.7033 133.094 87.6106 132.98 87.6106Z" fill="#F2F3F3"/>
<path d="M138.904 80.0759H134.083C133.969 80.0759 133.876 80.1686 133.876 80.283V81.7453C133.876 81.8596 133.969 81.9523 134.083 81.9523H138.904C139.017 81.9523 139.11 81.8596 139.11 81.7453V80.283C139.11 80.1686 139.017 80.0759 138.904 80.0759Z" fill="#FECB42"/>
<path d="M138.322 83.4592H134.711C134.427 83.4592 134.197 83.6904 134.197 83.9755V89.6308C134.197 89.9159 134.427 90.1471 134.711 90.1471H138.322C138.605 90.1471 138.836 89.9159 138.836 89.6308V83.9755C138.836 83.6904 138.605 83.4592 138.322 83.4592Z" fill="#97D25E"/>
<path d="M130.084 71.8054H127.577V72.1068H130.084V71.8054Z" fill="#C7CCE1"/>
<path d="M133.595 71.8054H131.088V72.1068H133.595V71.8054Z" fill="#C7CCE1"/>
<path d="M137.107 71.8054H134.6V72.1068H137.107V71.8054Z" fill="#C7CCE1"/>
</g>
<defs>
<linearGradient id="paint0_linear_32_2211" x1="164.969" y1="-20.2267" x2="170.702" y2="247.59" gradientUnits="userSpaceOnUse">
<stop stop-color="#FD749B"/>
<stop offset="1" stop-color="#281AC8"/>
</linearGradient>
<linearGradient id="paint1_linear_32_2211" x1="162.978" y1="201.274" x2="163.019" y2="219.24" gradientUnits="userSpaceOnUse">
<stop stop-color="#FD749B"/>
<stop offset="1" stop-color="#281AC8"/>
</linearGradient>
<linearGradient id="paint2_linear_32_2211" x1="202.163" y1="211.034" x2="202.163" y2="-2.33368e-06" gradientUnits="userSpaceOnUse">
<stop stop-color="#808080" stop-opacity="0.25"/>
<stop offset="0.54" stop-color="#808080" stop-opacity="0.12"/>
<stop offset="1" stop-color="#808080" stop-opacity="0.1"/>
</linearGradient>
<linearGradient id="paint3_linear_32_2211" x1="155.753" y1="48.4831" x2="156.914" y2="76.5946" gradientUnits="userSpaceOnUse">
<stop stop-color="#FD749B"/>
<stop offset="1" stop-color="#281AC8"/>
</linearGradient>
<linearGradient id="paint4_linear_32_2211" x1="37.5199" y1="3.5113" x2="38.59" y2="40.5766" gradientUnits="userSpaceOnUse">
<stop stop-color="#FD749B"/>
<stop offset="1" stop-color="#281AC8"/>
</linearGradient>
<linearGradient id="paint5_linear_32_2211" x1="45.0167" y1="53.0561" x2="45.5001" y2="69.803" gradientUnits="userSpaceOnUse">
<stop stop-color="#FD749B"/>
<stop offset="1" stop-color="#281AC8"/>
</linearGradient>
<linearGradient id="paint6_linear_32_2211" x1="5.73596" y1="9.97275" x2="6.2196" y2="26.724" gradientUnits="userSpaceOnUse">
<stop stop-color="#FD749B"/>
<stop offset="1" stop-color="#281AC8"/>
</linearGradient>
<linearGradient id="paint7_linear_32_2211" x1="128.774" y1="54.2379" x2="129.471" y2="84.2931" gradientUnits="userSpaceOnUse">
<stop stop-color="#FD749B"/>
<stop offset="1" stop-color="#281AC8"/>
</linearGradient>
<clipPath id="clip0_32_2211">
<rect width="271" height="213" fill="white"/>
</clipPath>
</defs>
</svg>
